<?xml version="1.0" encoding="utf-8"?>
<!-- Generator: Adobe Illustrator 20.1.0, SVG Export Plug-In . SVG Version: 6.00 Build 0)  -->
<svg version="1.1" id="Calque_1" xmlns="http://www.w3.org/2000/svg" xmlns:xlink="http://www.w3.org/1999/xlink" x="0px" y="0px"
	 viewBox="0 0 33 32" style="enable-background:new 0 0 33 32;" xml:space="preserve">
<path d="M1.5,32h21c0.8,0,1.5-0.7,1.5-1.5V23c0,0,0,0,0,0c0.1,0,0.1-0.1,0.2-0.1l8,8c0.1,0.1,0.2,0.1,0.4,0.1c0.1,0,0.3,0,0.4-0.1
	c0.2-0.2,0.2-0.5,0-0.7l-7.9-7.9c1.3-1.2,2.1-2.9,2.1-4.7c0-2.3-1.2-4.3-3-5.5c0,0,0,0,0,0V9.5c0,0,0,0,0,0c0,0,0,0,0-0.1
	c0-0.1,0-0.1-0.1-0.2c0,0,0,0,0,0l-8-9c0,0,0,0,0,0c-0.1-0.1-0.1-0.1-0.2-0.1c0,0,0,0-0.1,0c0,0-0.1,0-0.1,0h-14C0.7,0,0,0.7,0,1.5
	v29C0,31.3,0.7,32,1.5,32z M26,17.5c0,3-2.5,5.5-5.5,5.5c-3,0-5.5-2.5-5.5-5.5s2.5-5.5,5.5-5.5C23.5,12,26,14.5,26,17.5z M16,1.8
	L22.4,9h-5.9C16.3,9,16,8.6,16,8.2V1.8z M1,1.5C1,1.2,1.2,1,1.5,1H15v7.2c0,0.8,0.7,1.8,1.5,1.8H23v1.5c-0.8-0.3-1.6-0.5-2.5-0.5
	c-1.8,0-3.5,0.8-4.7,2H5.5C5.2,13,5,13.2,5,13.5S5.2,14,5.5,14H15c-0.6,0.9-0.9,1.9-1,3H5.5C5.2,17,5,17.2,5,17.5S5.2,18,5.5,18H14
	c0.1,1.1,0.4,2.1,1,3H5.5C5.2,21,5,21.2,5,21.5S5.2,22,5.5,22h10.2c0,0,0,0,0.1,0c1.2,1.2,2.8,2,4.7,2c0.9,0,1.7-0.2,2.5-0.5v7
	c0,0.3-0.2,0.5-0.5,0.5h-21C1.2,31,1,30.8,1,30.5V1.5z"/>
<path d="M5.5,10h6c0.3,0,0.5-0.2,0.5-0.5S11.8,9,11.5,9h-6C5.2,9,5,9.2,5,9.5S5.2,10,5.5,10z"/>
<path d="M5.5,26h13c0.3,0,0.5-0.2,0.5-0.5S18.8,25,18.5,25h-13C5.2,25,5,25.2,5,25.5S5.2,26,5.5,26z"/>
</svg>
