<?xml version="1.0" encoding="utf-8"?>
<!-- Generator: Adobe Illustrator 20.1.0, SVG Export Plug-In . SVG Version: 6.00 Build 0)  -->
<svg version="1.1" id="Calque_1" xmlns="http://www.w3.org/2000/svg" xmlns:xlink="http://www.w3.org/1999/xlink" x="0px" y="0px"
	 viewBox="0 0 42 32" style="enable-background:new 0 0 42 32;" xml:space="preserve">
<path d="M3.5,26C3.8,26,4,25.8,4,25.5V2c0-0.6,0.4-1,1-1h32c0.6,0,1,0.5,1,1.1v23.4c0,0.3,0.2,0.5,0.5,0.5c0.3,0,0.5-0.2,0.5-0.5
	V2.1C39,0.9,38.1,0,37,0H5C3.8,0,3,0.8,3,2v23.5C3,25.8,3.2,26,3.5,26z"/>
<path d="M6.5,3C6.2,3,6,3.2,6,3.5v22C6,25.8,6.2,26,6.5,26h29c0.3,0,0.5-0.2,0.5-0.5v-22C36,3.2,35.8,3,35.5,3H6.5z M35,25H7V4h28
	V25z"/>
<path d="M41.5,28h-41C0.2,28,0,28.2,0,28.5v1.2C0,30.9,1.4,32,2.5,32h37c1.1,0,2.5-1.4,2.5-2.5v-1C42,28.2,41.8,28,41.5,28z
	 M41,29.5c0,0.6-0.9,1.5-1.5,1.5h-37C1.9,31,1,30.2,1,29.7V29h40V29.5z"/>
</svg>
