<?xml version="1.0" encoding="iso-8859-1"?>
<!-- Generator: Adobe Illustrator 19.0.0, SVG Export Plug-In . SVG Version: 6.00 Build 0)  -->
<svg version="1.1" id="Capa_1" xmlns="http://www.w3.org/2000/svg" xmlns:xlink="http://www.w3.org/1999/xlink" x="0px" y="0px"
	 viewBox="0 0 490 490" style="enable-background:new 0 0 490 490;" xml:space="preserve">
<g>
	<path d="M292.309,377.722l-47.307-24.863l-47.312,24.863c-6.479,4.034-16.629-2.083-15.13-10.985l9.036-52.688l-38.271-37.304
		c-5.417-5.161-4.224-15.702,5.783-17.777l52.887-7.687l23.661-47.923c4.261-8.385,15.234-6.762,18.698,0l23.65,47.923l52.887,7.687
		c9.639,1.403,11.06,12.771,5.783,17.777l-38.271,37.304l9.036,52.688C309.234,373.445,301.348,382.107,292.309,377.722z
		 M183.009,276.562l27.072,26.389c2.453,2.393,3.574,5.845,2.998,9.225l-6.394,37.263l33.466-17.583
		c3.034-1.609,6.668-1.609,9.702,0l33.461,17.583l-6.394-37.263c-0.574-3.38,0.545-6.832,2.998-9.225l27.072-26.389l-37.406-5.437
		c-3.401-0.489-6.332-2.627-7.855-5.702l-16.728-33.893l-16.738,33.893c-1.517,3.074-4.454,5.213-7.849,5.702L183.009,276.562z"/>
	<path d="M412.842,94.37H124.343c-20.271,0-36.76-16.484-36.76-36.754c0-20.271,16.489-36.765,36.76-36.765h288.499
		c13.536,0,13.993-20.851,0-20.851H124.343C92.577,0,66.732,25.85,66.732,57.616v336.997c0,52.596,42.786,95.387,95.382,95.387
		h250.728c5.757,0,10.426-4.662,10.426-10.426V104.795C423.268,99.033,418.599,94.37,412.842,94.37z M402.417,469.149H162.115
		c-41.097,0-74.531-33.435-74.531-74.536V101.934c9.982,8.292,22.798,13.287,36.76,13.287h278.074V469.149z"/>
</g>
<g>
</g>
<g>
</g>
<g>
</g>
<g>
</g>
<g>
</g>
<g>
</g>
<g>
</g>
<g>
</g>
<g>
</g>
<g>
</g>
<g>
</g>
<g>
</g>
<g>
</g>
<g>
</g>
<g>
</g>
</svg>
