<?xml version="1.0" encoding="iso-8859-1"?>
<!-- Generator: Adobe Illustrator 19.0.0, SVG Export Plug-In . SVG Version: 6.00 Build 0)  -->
<svg version="1.1" id="Capa_1" xmlns="http://www.w3.org/2000/svg" xmlns:xlink="http://www.w3.org/1999/xlink" x="0px" y="0px"
	 viewBox="0 0 490 490" style="enable-background:new 0 0 490 490;" xml:space="preserve">
<g>
	<path d="M479.574,20.927H10.426C4.662,20.927,0,25.591,0,31.353v427.294c0,5.762,4.662,10.425,10.426,10.425h469.149
		c5.762,0,10.426-4.663,10.426-10.425V31.353C490,25.591,485.337,20.927,479.574,20.927z M20.851,41.779h448.298v74.527H20.851
		V41.779z M469.149,448.222H20.851V137.156h448.298V448.222z"/>
	<path d="M171.143,351.797L153.45,369.49l14.743,14.743l17.693-17.693c13.653,10.949,30.393,18.198,48.688,20.212v24.971h20.851
		v-24.971c18.295-2.014,35.035-9.262,48.687-20.212l17.693,17.693l14.743-14.743l-17.693-17.693
		c10.95-13.653,18.198-30.393,20.211-48.687h24.971v-20.851h-24.971c-2.014-18.295-9.261-35.034-20.21-48.687l17.692-17.685
		l-14.743-14.742l-17.691,17.684c-13.653-10.95-30.393-18.199-48.689-20.213v-24.971h-20.851v24.971
		c-18.296,2.014-35.037,9.263-48.69,20.213l-17.692-17.684l-14.743,14.742l17.692,17.685c-10.949,13.653-18.197,30.392-20.21,48.687
		h-24.971v20.851h24.971C152.946,321.405,160.194,338.144,171.143,351.797z M245,218.89c40.694,0,73.793,33.099,73.793,73.794
		c0,40.694-33.099,73.793-73.793,73.793c-40.695,0-73.794-33.099-73.794-73.793C171.206,251.989,204.305,218.89,245,218.89z"/>
	<path d="M245,334.59c23.111,0,41.905-18.795,41.905-41.905c0-23.111-18.794-41.906-41.905-41.906
		c-23.111,0-41.906,18.795-41.906,41.906C203.094,315.795,221.889,334.59,245,334.59z M245,271.629
		c11.606,0,21.054,9.448,21.054,21.056c0,11.605-9.448,21.054-21.054,21.054c-11.607,0-21.055-9.449-21.055-21.054
		C223.945,281.077,233.393,271.629,245,271.629z"/>
	<rect x="304.55" y="68.617" width="125.91" height="20.851"/>
</g>
<g>
</g>
<g>
</g>
<g>
</g>
<g>
</g>
<g>
</g>
<g>
</g>
<g>
</g>
<g>
</g>
<g>
</g>
<g>
</g>
<g>
</g>
<g>
</g>
<g>
</g>
<g>
</g>
<g>
</g>
</svg>
