<?xml version="1.0" encoding="iso-8859-1"?>
<!-- Generator: Adobe Illustrator 19.0.0, SVG Export Plug-In . SVG Version: 6.00 Build 0)  -->
<svg version="1.1" id="Capa_1" xmlns="http://www.w3.org/2000/svg" xmlns:xlink="http://www.w3.org/1999/xlink" x="0px" y="0px"
	 viewBox="0 0 490 490" style="enable-background:new 0 0 490 490;" xml:space="preserve">
<g>
	<path d="M479.574,0H10.426C4.663,0,0,4.663,0,10.426v469.149C0,485.338,4.663,490,10.426,490h469.149
		c5.762,0,10.426-4.662,10.426-10.425V10.426C490,4.663,485.337,0,479.574,0z M20.851,20.851h448.298v83.873H20.851V20.851z
		 M469.149,469.149H20.851V125.576h448.298V469.149z"/>
	<rect x="304.55" y="52.362" width="125.91" height="20.851"/>
	<path d="M245,399.612c2.932,0,5.732-1.232,7.707-3.401l56.842-62.411l-15.414-14.049l-38.709,42.503V216.462h-20.851v145.791
		l-38.709-42.503L180.451,333.8l56.841,62.411C239.268,398.38,242.067,399.612,245,399.612z"/>
</g>
<g>
</g>
<g>
</g>
<g>
</g>
<g>
</g>
<g>
</g>
<g>
</g>
<g>
</g>
<g>
</g>
<g>
</g>
<g>
</g>
<g>
</g>
<g>
</g>
<g>
</g>
<g>
</g>
<g>
</g>
</svg>
