<?xml version="1.0" encoding="iso-8859-1"?>
<!-- Generator: Adobe Illustrator 19.0.0, SVG Export Plug-In . SVG Version: 6.00 Build 0)  -->
<svg version="1.1" id="Capa_1" xmlns="http://www.w3.org/2000/svg" xmlns:xlink="http://www.w3.org/1999/xlink" x="0px" y="0px"
	 viewBox="0 0 490 490" style="enable-background:new 0 0 490 490;" xml:space="preserve">
<g>
	<rect x="188.393" y="43.514" width="20.851" height="30.768"/>
	<rect x="225.911" y="43.514" width="20.851" height="30.768"/>
	<rect x="263.439" y="43.514" width="20.851" height="30.768"/>
	<path d="M319.842,152.147V0H0v337.862h170.169V490H490V152.147H319.842z M20.851,20.851h278.14v76.094H20.851V20.851z
		 M20.851,317.011V117.796h278.14v34.351H170.169v164.864H20.851z M469.149,469.149H191.02V269.934h278.129V469.149z
		 M191.02,249.083v-76.084h278.129v76.084H191.02z"/>
	<rect x="358.551" y="195.661" width="20.851" height="30.768"/>
	<rect x="396.079" y="195.661" width="20.851" height="30.768"/>
	<rect x="433.597" y="195.661" width="20.851" height="30.768"/>
	<polygon points="116.341,161.932 56.628,221.644 116.341,281.357 131.083,266.614 86.113,221.644 131.083,176.673 	"/>
	<polygon points="323.997,423.741 383.719,364.018 323.997,304.305 309.254,319.047 354.235,364.018 309.254,408.998 	"/>
</g>
<g>
</g>
<g>
</g>
<g>
</g>
<g>
</g>
<g>
</g>
<g>
</g>
<g>
</g>
<g>
</g>
<g>
</g>
<g>
</g>
<g>
</g>
<g>
</g>
<g>
</g>
<g>
</g>
<g>
</g>
</svg>
