<?xml version="1.0" encoding="iso-8859-1"?>
<!-- Generator: Adobe Illustrator 19.0.0, SVG Export Plug-In . SVG Version: 6.00 Build 0)  -->
<svg version="1.1" id="Capa_1" xmlns="http://www.w3.org/2000/svg" xmlns:xlink="http://www.w3.org/1999/xlink" x="0px" y="0px"
	 viewBox="0 0 487.408 487.408" style="enable-background:new 0 0 487.408 487.408;" xml:space="preserve">
<g>
	<path d="M404.272,242.392V153.03V69.118c0-5.627-4.56-10.182-10.182-10.182H10.182C4.56,58.937,0,63.491,0,69.118v83.912V418.29
		c0,5.628,4.56,10.182,10.182,10.182H394.09c51.457,0,93.318-41.862,93.318-93.319C487.408,287.137,450.956,247.481,404.272,242.392
		z M20.364,79.3h363.544v63.548H20.364V79.3z M20.364,408.107V163.212h363.544v79.18c-46.684,5.089-83.136,44.745-83.136,92.761
		c0,29.5,13.762,55.841,35.199,72.955H20.364z M394.09,408.107c-40.226,0-72.954-32.724-72.954-72.955
		c0-40.23,32.728-72.954,72.954-72.954c40.226,0,72.954,32.724,72.954,72.954C467.044,375.384,434.316,408.107,394.09,408.107z"/>
	<polygon points="421.529,293.321 394.093,320.755 366.657,293.321 352.258,307.719 379.694,335.153 352.258,362.587 
		366.657,376.984 394.093,349.55 421.529,376.984 435.927,362.587 408.491,335.153 435.927,307.719 	"/>
	<rect x="67.978" y="208.733" width="25.39" height="20.364"/>
	<rect x="117.014" y="208.733" width="127.837" height="20.364"/>
	<rect x="67.978" y="270.899" width="25.39" height="20.364"/>
	<rect x="117.014" y="270.899" width="127.837" height="20.364"/>
	<rect x="67.978" y="333.065" width="25.39" height="20.364"/>
	<rect x="117.014" y="333.065" width="127.837" height="20.364"/>
</g>
<g>
</g>
<g>
</g>
<g>
</g>
<g>
</g>
<g>
</g>
<g>
</g>
<g>
</g>
<g>
</g>
<g>
</g>
<g>
</g>
<g>
</g>
<g>
</g>
<g>
</g>
<g>
</g>
<g>
</g>
</svg>
