<?xml version="1.0" encoding="iso-8859-1"?>
<!-- Generator: Adobe Illustrator 19.0.0, SVG Export Plug-In . SVG Version: 6.00 Build 0)  -->
<svg version="1.1" id="Capa_1" xmlns="http://www.w3.org/2000/svg" xmlns:xlink="http://www.w3.org/1999/xlink" x="0px" y="0px"
	 viewBox="0 0 490 490" style="enable-background:new 0 0 490 490;" xml:space="preserve">
<g>
	<path d="M0,0v490h490V0H0z M469.149,20.851v87.162H20.851V20.851H469.149z M20.851,469.149V128.864h448.298v340.285H20.851z"/>
	<path d="M333.909,222.857l21.776-21.779l-14.743-14.742l-21.775,21.779c-17.601-14.708-39.618-24.294-63.742-26.457v-30.743
		h-20.851v30.743c-24.122,2.162-46.137,11.747-63.737,26.452l-21.775-21.774l-14.743,14.742l21.774,21.774
		c-14.708,17.601-24.294,39.616-26.456,63.738H98.889v20.851h30.748c2.162,24.125,11.748,46.142,26.455,63.744l-21.777,21.777
		l14.742,14.743l21.778-21.778c17.601,14.707,39.616,24.292,63.74,26.455v30.753h20.851v-30.753
		c24.124-2.163,46.14-11.749,63.742-26.457l21.78,21.78l14.742-14.743l-21.78-21.78c14.706-17.601,24.291-39.617,26.453-63.741
		h30.743v-20.851h-30.743C358.199,262.47,348.615,240.457,333.909,222.857z M245,392.006c-52.378,0-94.986-42.608-94.986-94.99
		c0-52.373,42.608-94.981,94.986-94.981c52.377,0,94.985,42.608,94.985,94.981C339.985,349.398,297.377,392.006,245,392.006z"/>
	<path d="M245,239.889c-31.501,0-57.127,25.626-57.127,57.127s25.626,57.127,57.127,57.127c31.5,0,57.127-25.626,57.127-57.127
		S276.5,239.889,245,239.889z M245,333.292c-20.001,0-36.276-16.27-36.276-36.276c0-20.007,16.274-36.276,36.276-36.276
		c20,0,36.276,16.269,36.276,36.276C281.276,317.022,265,333.292,245,333.292z"/>
	<rect x="296.741" y="61.148" width="35.231" height="20.851"/>
	<rect x="350.303" y="61.148" width="35.232" height="20.851"/>
	<rect x="403.866" y="61.148" width="35.232" height="20.851"/>
</g>
<g>
</g>
<g>
</g>
<g>
</g>
<g>
</g>
<g>
</g>
<g>
</g>
<g>
</g>
<g>
</g>
<g>
</g>
<g>
</g>
<g>
</g>
<g>
</g>
<g>
</g>
<g>
</g>
<g>
</g>
</svg>
