<?xml version="1.0" encoding="iso-8859-1"?>
<!-- Generator: Adobe Illustrator 19.0.0, SVG Export Plug-In . SVG Version: 6.00 Build 0)  -->
<svg version="1.1" id="Capa_1" xmlns="http://www.w3.org/2000/svg" xmlns:xlink="http://www.w3.org/1999/xlink" x="0px" y="0px"
	 viewBox="0 0 490 490" style="enable-background:new 0 0 490 490;" xml:space="preserve">
<g>
	<path d="M0,0v490h490V0H0z M469.149,20.851v74.333H20.851V20.851H469.149z M20.851,469.149V116.035h448.298v353.114H20.851z"/>
	<path d="M365.596,244.573l-76.603-11.139l-34.26-69.405c-3.502-7.127-15.19-7.127-18.693,0l-34.259,69.405l-76.594,11.139
		c-9.917,1.352-10.981,12.922-5.783,17.776l55.427,54.032l-13.083,76.297c-1.9,8.806,8.229,14.883,15.128,10.985l68.509-36.02
		l68.509,36.02c9.868,4.777,16.273-4.579,15.129-10.985l-13.083-76.288l55.437-54.042
		C375.88,258.391,376.615,247.011,365.596,244.573z M297.464,305.283c-2.454,2.393-3.574,5.845-2.994,9.224l10.436,60.873
		l-54.662-28.741c-2.011-1.258-6.82-2.031-9.713,0l-54.663,28.741l10.436-60.873c0.581-3.38-0.539-6.832-2.993-9.224l-44.227-43.117
		l61.118-8.889c3.401-0.488,6.334-2.626,7.85-5.701l27.336-55.376l27.337,55.376c1.517,3.075,4.45,5.213,7.849,5.701l61.128,8.889
		L297.464,305.283z"/>
	<rect x="234.504" y="47.923" width="41.589" height="20.851"/>
	<rect x="312.003" y="47.923" width="41.59" height="20.851"/>
	<rect x="389.502" y="47.923" width="41.589" height="20.851"/>
</g>
<g>
</g>
<g>
</g>
<g>
</g>
<g>
</g>
<g>
</g>
<g>
</g>
<g>
</g>
<g>
</g>
<g>
</g>
<g>
</g>
<g>
</g>
<g>
</g>
<g>
</g>
<g>
</g>
<g>
</g>
</svg>
