<?xml version="1.0" encoding="iso-8859-1"?>
<!-- Generator: Adobe Illustrator 19.0.0, SVG Export Plug-In . SVG Version: 6.00 Build 0)  -->
<svg version="1.1" id="Capa_1" xmlns="http://www.w3.org/2000/svg" xmlns:xlink="http://www.w3.org/1999/xlink" x="0px" y="0px"
	 viewBox="0 0 490 490" style="enable-background:new 0 0 490 490;" xml:space="preserve">
<g>
	<rect x="83.279" y="56.144" width="20.67" height="24.212"/>
	<rect x="126.971" y="56.144" width="20.67" height="24.212"/>
	<rect x="170.653" y="56.144" width="20.67" height="24.212"/>
	<path d="M259.279,194.339v-20.774h-20.67v20.774c-11.873,1.739-22.803,6.42-32.017,13.287l-14.724-14.723l-14.614,14.615
		l14.721,14.721c-6.872,9.216-11.555,20.151-13.295,32.029h-20.774v20.67h20.774c1.739,11.869,6.417,22.795,13.281,32.006
		l-14.707,14.714l14.614,14.615l14.706-14.712c9.218,6.872,20.154,11.556,32.035,13.296v20.785h20.67v-20.785
		c11.876-1.739,22.808-6.421,32.022-13.289l14.698,14.706l14.615-14.615l-14.7-14.707c6.866-9.212,11.545-20.141,13.283-32.013
		h20.744v-20.67h-20.744c-1.74-11.881-6.424-22.817-13.296-32.035l14.692-14.685l-14.614-14.615l-14.695,14.687
		C282.074,200.757,271.148,196.078,259.279,194.339z M299.287,264.603c0,27.755-22.589,50.344-50.344,50.344
		c-27.765,0-50.354-22.589-50.354-50.344c0-27.765,22.589-50.354,50.354-50.354C276.699,214.249,299.287,236.838,299.287,264.603z"
		/>
	<path d="M0,0v490h490V0H0z M466.906,466.906H23.094V23.094h443.811V466.906z"/>
	<path d="M419.99,70.01H253.481l-33.858,45.461H70.011V419.99H419.99V70.01z M396.895,396.895H93.105v-258.33h138.113l33.859-45.461
		h131.818V396.895z"/>
</g>
<g>
</g>
<g>
</g>
<g>
</g>
<g>
</g>
<g>
</g>
<g>
</g>
<g>
</g>
<g>
</g>
<g>
</g>
<g>
</g>
<g>
</g>
<g>
</g>
<g>
</g>
<g>
</g>
<g>
</g>
</svg>
