<?xml version="1.0" encoding="iso-8859-1"?>
<!-- Generator: Adobe Illustrator 19.0.0, SVG Export Plug-In . SVG Version: 6.00 Build 0)  -->
<svg version="1.1" id="Capa_1" xmlns="http://www.w3.org/2000/svg" xmlns:xlink="http://www.w3.org/1999/xlink" x="0px" y="0px"
	 viewBox="0 0 490 490" style="enable-background:new 0 0 490 490;" xml:space="preserve">
<g>
	<path d="M381,57.575V5.213h-20.851v52.362H261.06V5.213h-20.851v52.362h-99.088V5.213H120.27v52.362H0v427.212h490V57.575H381z
		 M120.27,78.426v30.839h20.851V78.426h99.088v30.839h20.851V78.426h99.089v30.839H381V78.426h88.149v77.519H20.851V78.426H120.27z
		 M20.851,463.936v-287.14h448.298v287.14H20.851z"/>
	<rect x="182.268" y="217.531" width="20.851" height="41.244"/>
	<rect x="286.88" y="217.531" width="20.851" height="41.244"/>
	<rect x="391.492" y="217.531" width="20.851" height="41.244"/>
	<rect x="77.657" y="301.537" width="20.851" height="41.243"/>
	<rect x="182.268" y="301.537" width="20.851" height="41.243"/>
	<rect x="286.88" y="301.537" width="20.851" height="41.243"/>
	<rect x="391.492" y="301.537" width="20.851" height="41.243"/>
	<rect x="77.657" y="385.552" width="20.851" height="41.233"/>
	<rect x="182.268" y="385.552" width="20.851" height="41.233"/>
	<rect x="286.88" y="385.552" width="20.851" height="41.233"/>
</g>
<g>
</g>
<g>
</g>
<g>
</g>
<g>
</g>
<g>
</g>
<g>
</g>
<g>
</g>
<g>
</g>
<g>
</g>
<g>
</g>
<g>
</g>
<g>
</g>
<g>
</g>
<g>
</g>
<g>
</g>
</svg>
