<?xml version="1.0" encoding="iso-8859-1"?>
<!-- Generator: Adobe Illustrator 19.0.0, SVG Export Plug-In . SVG Version: 6.00 Build 0)  -->
<svg version="1.1" id="Capa_1" xmlns="http://www.w3.org/2000/svg" xmlns:xlink="http://www.w3.org/1999/xlink" x="0px" y="0px"
	 viewBox="0 0 490 490" style="enable-background:new 0 0 490 490;" xml:space="preserve">
<g>
	<path d="M479.574,0H10.425C4.669,0,0,4.663,0,10.425v469.149C0,485.337,4.669,490,10.425,490h469.149
		c5.758,0,10.426-4.663,10.426-10.426V10.425C490,4.663,485.332,0,479.574,0z M79.989,238.535v74.231H20.851V177.234h139.131
		v135.532H100.84v-74.231H79.989z M180.833,177.234h288.316v135.532H180.833V177.234z M469.149,156.383H180.833V20.851h288.316
		V156.383z M20.851,20.851h139.131v135.532H100.84V82.152H79.989v74.231H20.851V20.851z M20.851,333.617h139.131v135.532H100.84
		v-74.231H79.989v74.231H20.851V333.617z M469.149,469.149H180.833V333.617h288.316V469.149z"/>
	<rect x="274.21" y="78.192" width="50.779" height="20.851"/>
	<rect x="362.711" y="78.192" width="50.784" height="20.851"/>
	<rect x="274.21" y="234.574" width="50.779" height="20.851"/>
	<rect x="362.711" y="234.574" width="50.784" height="20.851"/>
	<rect x="274.21" y="390.957" width="50.779" height="20.851"/>
	<rect x="362.711" y="390.957" width="50.784" height="20.851"/>
</g>
<g>
</g>
<g>
</g>
<g>
</g>
<g>
</g>
<g>
</g>
<g>
</g>
<g>
</g>
<g>
</g>
<g>
</g>
<g>
</g>
<g>
</g>
<g>
</g>
<g>
</g>
<g>
</g>
<g>
</g>
</svg>
