<?xml version="1.0" encoding="iso-8859-1"?>
<!-- Generator: Adobe Illustrator 19.0.0, SVG Export Plug-In . SVG Version: 6.00 Build 0)  -->
<svg version="1.1" id="Capa_1" xmlns="http://www.w3.org/2000/svg" xmlns:xlink="http://www.w3.org/1999/xlink" x="0px" y="0px"
	 viewBox="0 0 490 490" style="enable-background:new 0 0 490 490;" xml:space="preserve">
<g>
	<path d="M245,0C109.906,0,0,109.906,0,245s109.906,245,245,245s245-109.906,245-245S380.094,0,245,0z M245,469.149
		C121.4,469.149,20.851,368.6,20.851,245S121.4,20.851,245,20.851C368.599,20.851,469.149,121.4,469.149,245
		S368.599,469.149,245,469.149z"/>
	<path d="M245,64.671c-99.429,0-180.329,80.9-180.329,180.329S145.571,425.329,245,425.329S425.328,344.429,425.328,245
		S344.429,64.671,245,64.671z M403.88,258.724c-3.054,35.659-17.886,68.005-40.587,93.116l-17.633-17.633l-14.742,14.743
		l17.415,17.416c-25.376,21.639-57.593,35.473-92.908,37.763v-23.892h-20.851v23.892c-35.329-2.292-67.557-16.135-92.938-37.788
		l17.322-17.371l-14.763-14.722l-17.515,17.564c-22.687-25.107-37.509-57.443-40.562-93.088h26.943v-20.851H85.689
		c1.618-36.604,15.633-70.038,37.941-96.202l20.688,20.688l14.743-14.742l-20.906-20.906c25.884-23.402,59.457-38.442,96.421-40.839
		v30.479h20.851V85.872c36.803,2.387,70.242,17.309,96.079,40.537l-21.237,21.29l14.763,14.722l21.045-21.097
		c22.48,26.215,36.609,59.783,38.235,96.549h-27.373v20.851L403.88,258.724L403.88,258.724z"/>
	<path d="M252.381,252.37l-14.742-14.742l63.932-63.932l14.742,14.742L252.381,252.37z"/>
</g>
<g>
</g>
<g>
</g>
<g>
</g>
<g>
</g>
<g>
</g>
<g>
</g>
<g>
</g>
<g>
</g>
<g>
</g>
<g>
</g>
<g>
</g>
<g>
</g>
<g>
</g>
<g>
</g>
<g>
</g>
</svg>
