<?xml version="1.0" encoding="iso-8859-1"?>
<!-- Generator: Adobe Illustrator 19.0.0, SVG Export Plug-In . SVG Version: 6.00 Build 0)  -->
<svg version="1.1" id="Capa_1" xmlns="http://www.w3.org/2000/svg" xmlns:xlink="http://www.w3.org/1999/xlink" x="0px" y="0px"
	 viewBox="0 0 489.694 489.694" style="enable-background:new 0 0 489.694 489.694;" xml:space="preserve">
<g>
	<path d="M391.099,80.525C375.365,35.611,331.29,4.717,281.901,4.717c-48.722,0-91.829,29.687-108.271,73.334
		c-19.986-4.729-40.812-5.129-61.22-1.187C54.561,88.03,10.742,133.499,1.272,189.664c-5.382,31.916,7.081,62.308,22.969,77.915
		c16.498,16.216,39.462,25.516,63,25.516h314.955c47.943,0,87.192-36.782,87.497-82.875
		C489.694,150.726,449.437,98.188,391.099,80.525z M402.197,272.658H87.242c-18.04,0-35.619-7.115-48.238-19.509
		c-11.942-11.736-19.239-31.57-17.115-60.442c3.494-47.47,46.085-86.436,94.552-95.786c7.941-1.537,15.995-2.314,23.941-2.314
		c12.497,0,24.837,2.213,36.957,5.667c10.093,2.876,12.513-4.4,13.246-7.095c10.884-40.055,48.437-68.025,91.315-68.025
		c42.119,0,79.505,27.342,90.913,66.479c1.008,3.463,3.803,6.157,7.356,7.075c52.209,13.541,88.673,59.404,88.668,112.262
		C468.614,244.987,438.717,272.658,402.197,272.658z"/>
	<path d="M234.476,323.141v70.091l-21.525-18.121l-13.162,15.627l38.324,32.271c4.649,3.854,9.506,3.044,13.162,0l38.324-32.271
		l-13.162-15.627l-21.524,18.121v-70.09H234.476z"/>
	<polygon points="352.859,464.541 136.528,464.541 136.528,420.544 116.092,420.544 116.092,484.978 373.296,484.978 
		373.296,420.544 352.859,420.544 	"/>
</g>
<g>
</g>
<g>
</g>
<g>
</g>
<g>
</g>
<g>
</g>
<g>
</g>
<g>
</g>
<g>
</g>
<g>
</g>
<g>
</g>
<g>
</g>
<g>
</g>
<g>
</g>
<g>
</g>
<g>
</g>
</svg>
