<?xml version="1.0" encoding="iso-8859-1"?>
<!-- Generator: Adobe Illustrator 19.0.0, SVG Export Plug-In . SVG Version: 6.00 Build 0)  -->
<svg version="1.1" id="Capa_1" xmlns="http://www.w3.org/2000/svg" xmlns:xlink="http://www.w3.org/1999/xlink" x="0px" y="0px"
	 viewBox="0 0 482.246 482.246" style="enable-background:new 0 0 482.246 482.246;" xml:space="preserve">
<g>
	<path d="M419.907,92.841L330.434,3.367C329.112,2.098,326.768,0,322.302,0H70.471c-6.352,0-11.5,5.148-11.5,11.5v459.246
		c0,6.352,5.148,11.5,11.5,11.5h341.304c6.352,0,11.5-5.148,11.5-11.5V100.973C423.275,96.217,420.152,93.086,419.907,92.841z
		 M333.802,39.264l50.209,50.209h-50.209V39.264z M107.938,353.97c43.546,0,78.973,35.427,78.973,78.973
		c0,9.08-1.511,17.897-4.487,26.304h-30.545c4.697-7.851,7.332-16.923,7.332-26.304c0-28.271-23.001-51.272-51.272-51.272
		c-9.349,0-18.261,2.526-25.967,7.048v-30.362C90.278,355.457,98.979,353.97,107.938,353.97z M81.971,421.753
		c4.481-10.383,14.647-17.083,25.967-17.083c15.59,0,28.272,12.683,28.272,28.272c0,18.618-17.572,26.176-17.897,26.304H81.971
		V421.753z M206.486,459.246c1.293-4.849,2.225-9.789,2.784-14.804h24.982v-23h-24.994c-2.107-18.683-9.28-35.852-20.112-50.098
		l19.291-19.291l-16.264-16.264l-18.913,18.914c-14.933-12.489-33.481-20.788-53.822-23.082v-24.31h-23v24.299
		c-4.899,0.547-9.726,1.448-14.467,2.695V23h228.831v77.973c0,6.352,5.148,11.5,11.5,11.5h77.973v346.773H206.486z"/>
	<path d="M352.213,254.206l13.37-13.37l-16.264-16.264l-13.37,13.37c-5.127-3.274-10.847-5.691-16.966-7.049v-18.887h-23v18.887
		c-6.118,1.358-11.839,3.775-16.966,7.049l-13.371-13.371l-16.264,16.264l13.371,13.371c-3.274,5.127-5.691,10.848-7.049,16.966
		h-18.887v23h18.887c1.358,6.119,3.775,11.839,7.05,16.966l-13.37,13.371l16.264,16.264l13.371-13.371
		c5.127,3.274,10.847,5.691,16.965,7.049v18.886h23v-18.886c6.118-1.358,11.839-3.775,16.966-7.049l13.37,13.371l16.264-16.264
		l-13.37-13.371c3.274-5.126,5.691-10.847,7.049-16.966h18.886v-23h-18.886C357.905,265.054,355.488,259.333,352.213,254.206z
		 M307.484,312.721c-16.569,0-30.049-13.479-30.049-30.049s13.479-30.049,30.049-30.049s30.049,13.479,30.049,30.049
		S324.053,312.721,307.484,312.721z"/>
</g>
<g>
</g>
<g>
</g>
<g>
</g>
<g>
</g>
<g>
</g>
<g>
</g>
<g>
</g>
<g>
</g>
<g>
</g>
<g>
</g>
<g>
</g>
<g>
</g>
<g>
</g>
<g>
</g>
<g>
</g>
</svg>
