<?xml version="1.0" encoding="iso-8859-1"?>
<!-- Generator: Adobe Illustrator 19.0.0, SVG Export Plug-In . SVG Version: 6.00 Build 0)  -->
<svg version="1.1" id="Capa_1" xmlns="http://www.w3.org/2000/svg" xmlns:xlink="http://www.w3.org/1999/xlink" x="0px" y="0px"
	 viewBox="0 0 487.116 487.116" style="enable-background:new 0 0 487.116 487.116;" xml:space="preserve">
<g>
	<path d="M433.134,10.364C433.134,4.636,428.499,0,422.77,0H64.345c-5.728,0-10.364,4.636-10.364,10.364v466.387
		c0,5.728,4.636,10.364,10.364,10.364H339.32v-0.034c2.773-0.169,5.434-1.439,7.297-3.66l82.913-98.491
		c3.373-4.04,3.604-6.355,3.604-6.355V10.364z M338.692,367.898c-5.728,0-10.364,4.635-10.364,10.364v88.125H74.71V20.728h337.697
		v347.169H338.692z M349.056,448.352v-59.726h50.272L349.056,448.352z"/>
	<path d="M231.325,104.216l-52.805,155.45h20.75l16.149-48.9h55.116l16.619,48.9h21.445l-53.05-155.45H231.325z M219.57,195.086
		c0,0,20.75-63.885,23.059-73.106h0.47c2.31,8.995,23.286,73.106,23.286,73.106H219.57z"/>
</g>
<g>
</g>
<g>
</g>
<g>
</g>
<g>
</g>
<g>
</g>
<g>
</g>
<g>
</g>
<g>
</g>
<g>
</g>
<g>
</g>
<g>
</g>
<g>
</g>
<g>
</g>
<g>
</g>
<g>
</g>
</svg>
