<?xml version="1.0" encoding="iso-8859-1"?>
<!-- Generator: Adobe Illustrator 19.0.0, SVG Export Plug-In . SVG Version: 6.00 Build 0)  -->
<svg version="1.1" id="Capa_1" xmlns="http://www.w3.org/2000/svg" xmlns:xlink="http://www.w3.org/1999/xlink" x="0px" y="0px"
	 viewBox="0 0 490 490" style="enable-background:new 0 0 490 490;" xml:space="preserve">
<g>
	<rect x="231.839" y="210.544" width="25.134" height="119.322"/>
	<path d="M244.634,159.616c-4.344,0-8.086,1.569-11.226,4.71c-3.14,3.14-4.709,6.881-4.709,11.225c0,4.345,1.569,8.068,4.709,11.208
		c3.14,3.139,6.882,4.709,11.226,4.709c4.326,0,8.068-1.57,11.208-4.709c3.139-3.14,4.709-6.863,4.709-11.208
		c0-4.344-1.57-8.086-4.709-11.225C252.702,161.186,248.96,159.616,244.634,159.616z"/>
	<path d="M418.241,71.759c-95.678-95.679-250.804-95.679-346.482,0c-95.678,95.679-95.679,250.804,0,346.482
		c95.678,95.679,250.804,95.679,346.483,0.001S513.92,167.438,418.241,71.759z M394.828,79.819L329.843,144.8
		c-48.981-41.567-121.241-41.456-170.093,0.341L94.783,80.179C179.639,2.724,309.834,2.601,394.828,79.819z M323.112,323.112
		c-43.14,43.14-113.084,43.14-156.224,0c-43.14-43.14-43.14-113.084,0-156.224c43.14-43.14,113.084-43.139,156.223,0
		C366.252,210.029,366.252,279.972,323.112,323.112z M80.061,94.91l64.972,64.968c-41.687,48.85-41.764,121.027-0.234,169.964
		l-64.985,64.981C2.64,309.871,2.724,179.767,80.061,94.91z M94.517,409.574l64.955-64.951
		c48.948,42.113,121.573,42.226,170.651,0.344l64.97,64.97C310.015,487.478,179.455,487.355,94.517,409.574z M409.824,395.215
		L344.86,330.25c41.99-49.079,41.912-121.787-0.236-170.777l64.955-64.952C487.392,179.5,487.476,310.141,409.824,395.215z"/>
</g>
<g>
</g>
<g>
</g>
<g>
</g>
<g>
</g>
<g>
</g>
<g>
</g>
<g>
</g>
<g>
</g>
<g>
</g>
<g>
</g>
<g>
</g>
<g>
</g>
<g>
</g>
<g>
</g>
<g>
</g>
</svg>
