<?xml version="1.0" encoding="iso-8859-1"?>
<!-- Generator: Adobe Illustrator 19.0.0, SVG Export Plug-In . SVG Version: 6.00 Build 0)  -->
<svg version="1.1" id="Capa_1" xmlns="http://www.w3.org/2000/svg" xmlns:xlink="http://www.w3.org/1999/xlink" x="0px" y="0px"
	 viewBox="0 0 479.754 479.754" style="enable-background:new 0 0 479.754 479.754;" xml:space="preserve">
<g>
	<path d="M88.479,99.959c-3.86-3.904-10.154-3.94-14.058-0.08l0,0c-3.905,3.86-3.94,10.154-0.08,14.059l141.135,142.749
		c3.86,3.904,10.154,3.94,14.058,0.08c3.905-3.86,3.941-10.154,0.08-14.059L88.479,99.959z"/>
	<path d="M333.376,269.905c-34.683,0-62.8,28.116-62.8,62.8s28.117,62.8,62.8,62.8s62.8-28.117,62.8-62.8
		S368.06,269.905,333.376,269.905z M333.376,370.179c-20.697,0-37.474-16.778-37.474-37.475c0-20.696,16.778-37.474,37.474-37.474
		s37.474,16.778,37.474,37.474C370.851,353.401,354.073,370.179,333.376,370.179z"/>
	<path d="M333.315,186.276c-14.518,0-28.539,2.12-41.779,6.054l-39.196-39.18c-1.506-1.502-3.445-2.506-5.543-2.844l-48.807-8.043
		l14.533-14.538c1.909-1.909,2.983-4.494,2.983-7.199c0-2.704-1.074-5.29-2.983-7.198l-34.643-34.644
		c-1.506-1.501-3.445-2.506-5.543-2.844l-48.806-8.034l14.532-14.538c3.977-3.978,3.977-10.42,0-14.397L102.778,3.582
		c-2.799-2.804-6.95-3.709-10.67-2.376L6.71,32.149c-4.112,1.492-6.811,5.449-6.707,9.825L1.275,95.15
		c0.06,2.616,1.129,5.101,2.979,6.95l188.721,188.726c-3.96,13.272-6.098,27.329-6.098,41.888
		c0,80.875,65.563,146.438,146.438,146.438c80.876,0,146.439-65.563,146.439-146.438
		C479.754,251.838,414.191,186.276,333.315,186.276z M333.315,458.898c-69.689,0-126.183-56.494-126.183-126.183
		c0-12.218,2.322-24.86,5.563-36.032c0.518-1.731,4.757-9.994-0.77-15.701L21.536,90.586l-1-41.782l72.422-26.241l23.506,23.506
		L95.107,67.429c-6.26,5.719-1.774,16.186,5.543,17.241l65.143,10.729l25.132,25.127l-21.359,21.359
		c-2.699,2.694-6.496,13.689,5.544,17.241l65.148,10.739l41.394,41.385c2.754,2.754,6.856,3.698,10.52,2.426
		c0.972-0.335,18.73-7.144,41.142-7.144c69.689,0,126.183,56.494,126.183,126.183S403.004,458.898,333.315,458.898z"/>
</g>
<g>
</g>
<g>
</g>
<g>
</g>
<g>
</g>
<g>
</g>
<g>
</g>
<g>
</g>
<g>
</g>
<g>
</g>
<g>
</g>
<g>
</g>
<g>
</g>
<g>
</g>
<g>
</g>
<g>
</g>
</svg>
