<?xml version="1.0" encoding="iso-8859-1"?>
<!-- Generator: Adobe Illustrator 19.0.0, SVG Export Plug-In . SVG Version: 6.00 Build 0)  -->
<svg version="1.1" id="Capa_1" xmlns="http://www.w3.org/2000/svg" xmlns:xlink="http://www.w3.org/1999/xlink" x="0px" y="0px"
	 viewBox="0 0 490.044 490.044" style="enable-background:new 0 0 490.044 490.044;" xml:space="preserve">
<path d="M476.937,0.399L323.419,40.841L169.902,0.399c-1.085-0.289-4.589-0.653-6.557,0L7.794,41.378
	c-4.577,1.201-7.769,5.345-7.769,10.079V479.62c0,9.232,9.793,11.104,13.083,10.079l153.515-40.443l153.52,40.443
	c2.55,0.64,5.676,0.235,6.551,0l155.556-40.979c4.577-1.201,7.768-5.345,7.768-10.079V10.478
	C490.018,4.621,484.327-1.658,476.937,0.399z M469.168,24.009v191.8l-134.705,35.486V59.49L469.168,24.009z M312.375,59.49v191.805
	L177.67,215.809v-191.8L312.375,59.49z M155.576,24.009v191.8l-134.7,35.486V59.49L155.576,24.009z M20.876,466.09V274.289
	l134.7-35.486v191.805L20.876,466.09z M177.67,430.609V238.803l134.705,35.486V466.09L177.67,430.609z M334.462,466.09V274.289
	l134.705-35.486v191.805L334.462,466.09z"/>
<g>
</g>
<g>
</g>
<g>
</g>
<g>
</g>
<g>
</g>
<g>
</g>
<g>
</g>
<g>
</g>
<g>
</g>
<g>
</g>
<g>
</g>
<g>
</g>
<g>
</g>
<g>
</g>
<g>
</g>
</svg>
