<?xml version="1.0" encoding="iso-8859-1"?>
<!-- Generator: Adobe Illustrator 19.0.0, SVG Export Plug-In . SVG Version: 6.00 Build 0)  -->
<svg version="1.1" id="Capa_1" xmlns="http://www.w3.org/2000/svg" xmlns:xlink="http://www.w3.org/1999/xlink" x="0px" y="0px"
	 viewBox="0 0 487.047 487.047" style="enable-background:new 0 0 487.047 487.047;" xml:space="preserve">
<g>
	<path d="M487.047,5.521l-20.729-0.486c-0.078,2.962-2.903,70.801-78.931,123.61C361.291,99.612,324.424,83.13,284.814,83.13
		c-30.819,0-59.999,9.96-84.391,28.805L4.01,263.673c-6.512,5.356-3.532,12.408-1.831,14.584L158.39,478.091
		c5.182,6.521,12.62,3.27,14.504,1.812l196.423-151.738c29.089-22.468,47.611-54.857,52.175-91.192
		c4.08-32.555-3.505-64.781-21.411-91.91C484.283,86.489,486.969,8.904,487.047,5.521z M370.448,140.837l-91.121,70.396
		l-65.331-83.569c20.546-15.569,45-23.807,70.818-23.807C317.719,103.858,348.383,117.215,370.448,140.837z M168.379,457.201
		L24.931,273.703l172.642-133.378L341.03,323.832L168.379,457.201z M400.925,234.392c-3.824,30.487-19.263,57.701-43.492,76.753
		l-65.346-83.59l91.111-70.424C398.072,179.992,404.354,207.058,400.925,234.392z"/>
</g>
<g>
</g>
<g>
</g>
<g>
</g>
<g>
</g>
<g>
</g>
<g>
</g>
<g>
</g>
<g>
</g>
<g>
</g>
<g>
</g>
<g>
</g>
<g>
</g>
<g>
</g>
<g>
</g>
<g>
</g>
</svg>
