<?xml version="1.0" encoding="iso-8859-1"?>
<!-- Generator: Adobe Illustrator 19.0.0, SVG Export Plug-In . SVG Version: 6.00 Build 0)  -->
<svg version="1.1" id="Capa_1" xmlns="http://www.w3.org/2000/svg" xmlns:xlink="http://www.w3.org/1999/xlink" x="0px" y="0px"
	 viewBox="0 0 490 490" style="enable-background:new 0 0 490 490;" xml:space="preserve">
<g>
	<path d="M285.852,146.212c-17.027-29.709-48.274-48.197-81.628-48.197c-33.348,0-65.294,18.096-81.628,48.197
		c-17.186,31.672,9.119,59.5,33.496,59.5h96.263C276.861,205.711,303.871,177.649,285.852,146.212z M252.356,184.86h-96.263
		c-15.218,0-20.619-18.954-15.393-28.304c13.065-23.375,37.639-37.69,63.525-37.69c26.288,0,49.105,14.647,63.526,37.69
		C274.043,166.611,268.876,184.86,252.356,184.86z"/>
	<path d="M204.225,88.454c23.687,0,42.959-19.843,42.959-44.227C247.184,19.844,227.912,0,204.225,0
		c-23.687,0-42.959,19.844-42.959,44.227C161.265,68.611,180.538,88.454,204.225,88.454z M204.225,20.851
		c12.192,0,22.108,10.487,22.108,23.376c0,12.889-9.917,23.376-22.108,23.376c-12.192,0-22.108-10.487-22.108-23.376
		C182.116,31.338,192.033,20.851,204.225,20.851z"/>
	<path d="M490,434.452V284.3H281.093v150.152h70.749l-6.335,34.697h-22.082V490h134.382v-20.851h-22.083l-6.335-34.697H490z
		 M301.944,305.151h167.205v108.449H301.944V305.151z M414.527,469.149h-47.821l6.332-34.697h35.156L414.527,469.149z"/>
	<rect x="54.047" y="439.461" width="30.086" height="20.851"/>
	<path d="M0,416.249v14.365V490h138.175v-59.387v-14.365V284.3H0V416.249z M117.324,469.149H20.851v-38.536h96.473V469.149z
		 M20.851,305.151h96.473v104.611H20.851V305.151z"/>
	<polygon points="214.65,224.333 193.799,224.333 193.799,285.669 147.944,333.312 162.971,347.77 204.23,304.906 245.479,347.77 
		260.506,333.312 214.65,285.66 	"/>
</g>
<g>
</g>
<g>
</g>
<g>
</g>
<g>
</g>
<g>
</g>
<g>
</g>
<g>
</g>
<g>
</g>
<g>
</g>
<g>
</g>
<g>
</g>
<g>
</g>
<g>
</g>
<g>
</g>
<g>
</g>
</svg>
