<?xml version="1.0" encoding="iso-8859-1"?>
<!-- Generator: Adobe Illustrator 19.0.0, SVG Export Plug-In . SVG Version: 6.00 Build 0)  -->
<svg version="1.1" id="Capa_1" xmlns="http://www.w3.org/2000/svg" xmlns:xlink="http://www.w3.org/1999/xlink" x="0px" y="0px"
	 viewBox="0 0 490 490" style="enable-background:new 0 0 490 490;" xml:space="preserve">
<g>
	<path d="M317.052,283.21c-22.776,0-41.239,18.463-41.239,41.239s18.463,41.239,41.239,41.239s41.239-18.463,41.239-41.239
		S339.828,283.21,317.052,283.21z M317.052,352.127c-15.286,0-27.678-12.392-27.678-27.678c0-15.286,12.392-27.678,27.678-27.678
		s27.678,12.392,27.678,27.678C344.73,339.736,332.338,352.127,317.052,352.127z"/>
	<path d="M386.733,114.884h-51.497V90.235C335.235,40.48,294.755,0,244.999,0c-49.755,0-90.235,40.48-90.235,90.235v24.649h-51.497
		L68.468,490h353.064L386.733,114.884z M175.615,90.235c0-38.26,31.123-69.384,69.384-69.384c38.262,0,69.385,31.124,69.385,69.384
		v24.649H175.615V90.235z M122.266,135.735h32.499v61.239h-11.912v20.851h44.675v-20.851h-11.911v-61.239h138.769v61.239h-11.912
		v20.851h44.676v-20.851h-11.912v-61.239h32.499l30.93,333.414H91.335L122.266,135.735z"/>
	<path d="M168.065,317.609c-8.034-1.942-19.443-4.411-19.443-12.711c0-8.086,9.321-9.476,13.168-9.476
		c10.723,0,18.804,5.08,21.121,7.177l7.058-9.977c-3.583-2.992-13.169-9.412-27.678-9.412c-7.77,0-27.449,3.733-27.449,22.635
		c0,14.987,11.91,19.517,14.901,20.675c2.982,1.157,7.359,2.425,13.114,3.812c5.744,1.387,15.685,3.907,15.685,11.655
		c0,8.452-9.639,10.031-13.898,10.031c-8.518,0-16.734-3.438-24.65-10.314l-8.29,9.977c9.485,8.445,20.356,12.658,32.603,12.658
		c8.372,0,28.015-3.845,28.015-23.027C192.323,323.775,176.091,319.553,168.065,317.609z"/>
	<polygon points="221.908,330.049 259.444,330.049 259.444,318.285 221.908,318.285 221.908,297.556 263.703,297.556 
		263.703,285.117 208.684,285.117 208.684,363.445 265.052,363.445 265.052,351.006 221.908,351.006 	"/>
</g>
<g>
</g>
<g>
</g>
<g>
</g>
<g>
</g>
<g>
</g>
<g>
</g>
<g>
</g>
<g>
</g>
<g>
</g>
<g>
</g>
<g>
</g>
<g>
</g>
<g>
</g>
<g>
</g>
<g>
</g>
</svg>
