<?xml version="1.0" encoding="iso-8859-1"?>
<!-- Generator: Adobe Illustrator 19.0.0, SVG Export Plug-In . SVG Version: 6.00 Build 0)  -->
<svg version="1.1" id="Capa_1" xmlns="http://www.w3.org/2000/svg" xmlns:xlink="http://www.w3.org/1999/xlink" x="0px" y="0px"
	 viewBox="0 0 490 490" style="enable-background:new 0 0 490 490;" xml:space="preserve">
<g>
	<path d="M479.574,41.285H392.19v-30.86C392.19,4.663,387.526,0,381.764,0H108.225C102.463,0,97.8,4.663,97.8,10.426V175.29H10.425
		C4.663,175.29,0,179.953,0,185.715v108.298c0,5.762,4.663,10.425,10.425,10.425H97.8v86.426v0.001v88.709
		c0,5.763,4.663,10.425,10.425,10.425h273.539c5.762,0,10.426-4.662,10.426-10.425v-88.709l0,0l0,0V170.433h87.384
		c5.762,0,10.426-4.663,10.426-10.425V51.711C490,45.948,485.337,41.285,479.574,41.285z M20.851,196.14h192.933v87.446h-8.409
		c-5.762,0-10.426,4.664-10.426,10.426v14.854l-24.343-22.511c-1.924-1.782-4.449-2.769-7.076-2.769H20.851V196.14z
		 M371.339,469.149H118.651v-67.858h252.688V469.149z M371.339,380.44H118.651v-76.002h40.796l38.852,35.929
		c4.586,4.224,9.906,2.485,11.25,1.894c3.798-1.659,6.251-5.405,6.251-9.55v-28.273h8.409c5.763,0,10.425-4.663,10.425-10.425
		V185.715c0-5.762-4.662-10.425-10.425-10.425H118.651V20.851h252.688v20.434H265.78c-5.764,0-10.426,4.663-10.426,10.425v108.297
		c0,5.762,4.662,10.425,10.426,10.425h8.409v28.273c0,4.144,2.517,7.75,6.251,9.55c4.521,2.179,9.285-0.081,11.25-1.893
		l38.852-35.93h40.796V380.44z M469.149,149.582H326.46c-2.627,0-5.152,0.987-7.076,2.769l-24.344,22.511v-14.854
		c0-5.762-4.663-10.425-10.425-10.425h-8.409V62.136h83.5h22.059c0,0,0.001,0,0.001,0h87.383V149.582z"/>
	<rect x="226.664" y="424.8" width="36.662" height="20.851"/>
</g>
<g>
</g>
<g>
</g>
<g>
</g>
<g>
</g>
<g>
</g>
<g>
</g>
<g>
</g>
<g>
</g>
<g>
</g>
<g>
</g>
<g>
</g>
<g>
</g>
<g>
</g>
<g>
</g>
<g>
</g>
</svg>
