<?xml version="1.0" encoding="iso-8859-1"?>
<!-- Generator: Adobe Illustrator 19.0.0, SVG Export Plug-In . SVG Version: 6.00 Build 0)  -->
<svg version="1.1" id="Capa_1" xmlns="http://www.w3.org/2000/svg" xmlns:xlink="http://www.w3.org/1999/xlink" x="0px" y="0px"
	 viewBox="0 0 490 490" style="enable-background:new 0 0 490 490;" xml:space="preserve">
<g>
	<path d="M179.349,241.634l-12.98,12.978l14.742,14.742l12.981-12.978c11.483,8.924,25.352,14.899,40.48,16.802v18.33h20.851v-18.33
		c15.132-1.903,29.005-7.881,40.49-16.809l12.983,12.985l14.742-14.742l-12.983-12.987c8.924-11.484,14.899-25.355,16.802-40.485
		h18.325v-20.851h-18.326c-1.903-15.127-7.879-28.995-16.803-40.478l12.979-12.983l-14.742-14.742l-12.98,12.983
		c-11.484-8.926-25.357-14.904-40.487-16.806V89.94h-20.851v18.321c-15.128,1.903-28.998,7.878-40.482,16.802l-12.979-12.979
		l-14.742,14.742l12.978,12.979c-8.926,11.483-14.904,25.354-16.807,40.483h-18.321v20.851h18.321
		C164.442,216.273,170.421,230.148,179.349,241.634z M244.997,128.435c34.342,0,62.284,27.937,62.284,62.278
		c0,34.342-27.942,62.289-62.284,62.289c-34.341,0-62.283-27.948-62.283-62.289C182.714,156.373,210.656,128.435,244.997,128.435z"
		/>
	<path d="M244.997,233.353c23.514,0,42.639-19.131,42.639-42.639c0-23.507-19.126-42.638-42.639-42.638
		c-23.508,0-42.633,19.131-42.633,42.638C202.364,214.222,221.489,233.353,244.997,233.353z M244.997,168.926
		c12.014,0,21.788,9.774,21.788,21.787c0,12.014-9.774,21.788-21.788,21.788c-12.008,0-21.782-9.774-21.782-21.788
		C223.215,178.7,232.989,168.926,244.997,168.926z"/>
	<rect x="189.978" y="421.369" width="78.191" height="20.851"/>
	<path d="M88.329,0v490h313.341V0H88.329z M380.82,20.851v351.281H109.18V20.851H380.82z M109.18,469.149v-76.166H380.82v76.166
		H109.18z"/>
</g>
<g>
</g>
<g>
</g>
<g>
</g>
<g>
</g>
<g>
</g>
<g>
</g>
<g>
</g>
<g>
</g>
<g>
</g>
<g>
</g>
<g>
</g>
<g>
</g>
<g>
</g>
<g>
</g>
<g>
</g>
</svg>
