<?xml version="1.0" encoding="iso-8859-1"?>
<!-- Generator: Adobe Illustrator 19.0.0, SVG Export Plug-In . SVG Version: 6.00 Build 0)  -->
<svg version="1.1" id="Capa_1" xmlns="http://www.w3.org/2000/svg" xmlns:xlink="http://www.w3.org/1999/xlink" x="0px" y="0px"
	 viewBox="0 0 490 490" style="enable-background:new 0 0 490 490;" xml:space="preserve">
<g>
	<path d="M317.189,191.089l-13.784,13.783l40.123,40.123l-40.123,40.133l13.784,13.784l47.015-47.024
		c3.807-3.808,3.807-9.977,0-13.784L317.189,191.089z"/>
	<path d="M172.812,191.089l-47.026,47.015c-1.828,1.828-2.855,4.303-2.855,6.892c0,2.59,1.027,5.065,2.855,6.893l47.026,47.024
		l13.783-13.784l-40.133-40.133l40.133-40.123L172.812,191.089z"/>
	<path d="M407.821,0H82.179c-5.387,0-9.748,4.36-9.748,9.748v470.505c0,5.387,4.36,9.748,9.748,9.748h325.641
		c5.389,0,9.748-4.36,9.748-9.748V9.748C417.568,4.36,413.209,0,407.821,0z M91.927,103.007h306.146v283.986H91.927V103.007z
		 M91.927,19.495h306.146v64.017H91.927V19.495z M398.073,470.505H91.927v-64.017h306.146V470.505z"/>
	<rect x="223.872" y="428.744" width="42.256" height="19.495"/>
	<rect x="177.057" y="41.751" width="135.886" height="19.495"/>
</g>
<g>
</g>
<g>
</g>
<g>
</g>
<g>
</g>
<g>
</g>
<g>
</g>
<g>
</g>
<g>
</g>
<g>
</g>
<g>
</g>
<g>
</g>
<g>
</g>
<g>
</g>
<g>
</g>
<g>
</g>
</svg>
