<?xml version="1.0" encoding="iso-8859-1"?>
<!-- Generator: Adobe Illustrator 19.0.0, SVG Export Plug-In . SVG Version: 6.00 Build 0)  -->
<svg version="1.1" id="Capa_1" xmlns="http://www.w3.org/2000/svg" xmlns:xlink="http://www.w3.org/1999/xlink" x="0px" y="0px"
	 viewBox="0 0 483.769 483.769" style="enable-background:new 0 0 483.769 483.769;" xml:space="preserve">
<g>
	<rect x="195.606" y="416.824" width="90.787" height="20.586"/>
	<path d="M70.442,0v483.769h342.884V0H70.442z M185.985,370.466h-28.003c4.772-7.444,7.498-16.219,7.498-25.431
		c0-26.266-21.359-47.636-47.624-47.636c-9.926,0-19.174,3.088-26.829,8.401v-28.408c8.571-3.44,17.569-5.182,26.829-5.182
		c40.147,0,72.814,32.668,72.814,72.825C190.67,353.751,189.076,362.279,185.985,370.466z M91.028,347.187l-0.002-0.32v-3.627
		c0.946-14.174,12.682-25.254,26.829-25.254c14.906,0,27.039,12.133,27.039,27.05c0,11.449-7.478,21.721-18.354,25.431h-17.369
		C98.878,366.958,91.641,357.539,91.028,347.187z M392.74,463.183H91.028v-72.131H392.74V463.183z M207.688,370.466
		c1.428-4.965,2.423-10.012,2.996-15.138h21.902v-20.586h-21.893c-1.93-17.521-8.724-33.604-18.998-46.852l15.188-15.198
		l-14.555-14.554l-14.957,14.957c-13.157-10.906-29.341-18.274-47.082-20.646v-20.003h-20.586v19.531
		c-6.353,0.553-12.585,1.759-18.676,3.608V20.586H392.74v349.88H207.688z"/>
	<path d="M343.828,218.326l14.786-14.778l-14.554-14.555l-14.554,14.547c-4.701-3.103-9.985-5.384-15.651-6.649v-20.413h-20.586
		v20.412c-5.669,1.265-10.956,3.546-15.659,6.649l-14.547-14.547l-14.554,14.555l14.777,14.777c-2.87,4.67-4.95,9.875-6.055,15.428
		h-21.237v20.586h21.712c1.305,5.268,3.495,10.188,6.405,14.597l-15.602,15.609l14.554,14.555l15.834-15.841
		c4.372,2.687,9.215,4.673,14.372,5.824v22.532h20.586V289.08c5.154-1.15,9.994-3.137,14.364-5.823l15.841,15.841l14.554-14.555
		l-15.61-15.61c2.909-4.408,5.099-9.328,6.404-14.595h21.712v-20.586h-21.237C348.777,228.199,346.698,222.996,343.828,218.326z
		 M303.561,269.637c-14.695,0-26.658-11.952-26.658-26.647s11.963-26.657,26.658-26.657c14.695,0,26.647,11.961,26.647,26.657
		S318.256,269.637,303.561,269.637z"/>
</g>
<g>
</g>
<g>
</g>
<g>
</g>
<g>
</g>
<g>
</g>
<g>
</g>
<g>
</g>
<g>
</g>
<g>
</g>
<g>
</g>
<g>
</g>
<g>
</g>
<g>
</g>
<g>
</g>
<g>
</g>
</svg>
