<?xml version="1.0" encoding="iso-8859-1"?>
<!-- Generator: Adobe Illustrator 19.0.0, SVG Export Plug-In . SVG Version: 6.00 Build 0)  -->
<svg version="1.1" id="Capa_1" xmlns="http://www.w3.org/2000/svg" xmlns:xlink="http://www.w3.org/1999/xlink" x="0px" y="0px"
	 viewBox="0 0 490 490" style="enable-background:new 0 0 490 490;" xml:space="preserve">
<g>
	<rect x="175.009" y="430.756" width="48.737" height="20.851"/>
	<path d="M305.888,141.396c-33.282,0-60.364,27.083-60.364,60.374c0,33.282,27.081,60.365,60.364,60.365
		c33.283,0,60.365-27.083,60.365-60.365C366.253,168.479,339.171,141.396,305.888,141.396z M305.888,241.284
		c-21.787,0-39.513-17.725-39.513-39.514c0-21.798,17.726-39.523,39.513-39.523c21.788,0,39.514,17.726,39.514,39.523
		C345.402,223.559,327.677,241.284,305.888,241.284z"/>
	<path d="M443.507,212.196v-20.851h-22.18c-2.163-24.148-11.758-46.185-26.481-63.801l15.724-15.724l-14.742-14.741l-15.726,15.725
		c-8.365-6.99-17.728-12.821-27.839-17.253V10.425C352.264,4.663,347.601,0,341.839,0H56.918c-5.763,0-10.426,4.663-10.426,10.425
		v469.149c0,5.763,4.663,10.425,10.426,10.425h284.921c5.762,0,10.426-4.662,10.426-10.425V307.981
		c10.112-4.431,19.474-10.263,27.84-17.252l15.725,15.726l14.742-14.743l-15.724-15.724c14.722-17.614,24.317-39.648,26.48-63.792
		H443.507z M331.413,469.149H67.344v-55.946h264.069V469.149z M331.413,392.352H67.344V20.851h264.069v67.845
		c-4.923-1.111-9.963-1.904-15.099-2.364v-22.19h-20.851v22.19c-24.143,2.162-46.175,11.754-63.789,26.471l-15.726-15.725
		l-14.743,14.741l15.725,15.725c-14.723,17.616-24.317,39.653-26.48,63.8h-22.181v20.851h22.181
		c2.163,24.143,11.757,46.177,26.479,63.791l-15.724,15.724l14.743,14.743l15.725-15.725c17.614,14.717,39.646,24.308,63.789,26.47
		v22.19h20.851v-22.19c5.136-0.46,10.177-1.253,15.099-2.363V392.352z M305.888,296.822c-52.412,0-95.061-42.638-95.061-95.052
		c0-52.412,42.649-95.061,95.061-95.061c52.414,0,95.062,42.649,95.062,95.061C400.95,254.184,358.302,296.822,305.888,296.822z"/>
</g>
<g>
</g>
<g>
</g>
<g>
</g>
<g>
</g>
<g>
</g>
<g>
</g>
<g>
</g>
<g>
</g>
<g>
</g>
<g>
</g>
<g>
</g>
<g>
</g>
<g>
</g>
<g>
</g>
<g>
</g>
</svg>
