<?xml version="1.0" encoding="iso-8859-1"?>
<!-- Generator: Adobe Illustrator 19.0.0, SVG Export Plug-In . SVG Version: 6.00 Build 0)  -->
<svg version="1.1" id="Capa_1" xmlns="http://www.w3.org/2000/svg" xmlns:xlink="http://www.w3.org/1999/xlink" x="0px" y="0px"
	 viewBox="0 0 490 490" style="enable-background:new 0 0 490 490;" xml:space="preserve">
<g>
	<path d="M21.304,0H0v479.348C0,485.236,4.765,490,10.652,490H490v-21.304H21.304V0z"/>
	<path d="M470.444,30.657L365.836,189.909l-55.352-55.342c-5.331-5.396-11.896-3.957-15.656,0.646l-96.557,114L63.467,146.062
		c-8.25-6.749-17.123,0.753-17.123,8.458v245.957c0,5.889,4.765,10.652,10.652,10.652h422.352c5.888,0,10.652-4.764,10.652-10.652
		V36.503C490,23.092,474.885,23.234,470.444,30.657z M468.696,389.824H67.648v-213.74l125.735,96.203
		c4.515,3.474,10.933,2.756,14.595-1.571l95.63-112.898l56.413,56.402c5.719,5.367,13.615,2.76,16.436-1.685l92.238-140.414V389.824
		z"/>
</g>
<g>
</g>
<g>
</g>
<g>
</g>
<g>
</g>
<g>
</g>
<g>
</g>
<g>
</g>
<g>
</g>
<g>
</g>
<g>
</g>
<g>
</g>
<g>
</g>
<g>
</g>
<g>
</g>
<g>
</g>
</svg>
