<?xml version="1.0" encoding="iso-8859-1"?>
<!-- Generator: Adobe Illustrator 19.0.0, SVG Export Plug-In . SVG Version: 6.00 Build 0)  -->
<svg version="1.1" id="Capa_1" xmlns="http://www.w3.org/2000/svg" xmlns:xlink="http://www.w3.org/1999/xlink" x="0px" y="0px"
	 viewBox="0 0 490 490" style="enable-background:new 0 0 490 490;" xml:space="preserve">
<g>
	<rect x="159.85" y="426.55" width="86.316" height="20.851"/>
	<path d="M460.673,56.23h-73.549V10.426C387.124,4.663,382.461,0,376.699,0H29.327c-5.762,0-10.426,4.663-10.426,10.426v469.149
		c0,5.763,4.663,10.426,10.426,10.426h347.372c5.762,0,10.426-4.663,10.426-10.426V291.579h73.549
		c5.762,0,10.426-4.663,10.426-10.426V66.656C471.099,60.894,466.436,56.23,460.673,56.23z M366.273,469.149H39.752v-64.345h326.521
		V469.149z M366.273,383.953H39.752V20.851h326.521V56.23h-4.221h0H159.85c-5.763,0-10.426,4.664-10.426,10.426v214.498
		c0,5.762,4.662,10.426,10.426,10.426h39.594l39.35,63.866c4.439,6.643,14.135,6.123,17.757,0l39.36-63.866h70.363V383.953z
		 M450.248,270.728h-160.16c-3.615,0-6.975,1.873-8.879,4.958l-33.537,54.419l-33.526-54.419c-1.904-3.085-5.264-4.958-8.878-4.958
		h-34.992V77.081h279.972V270.728z"/>
	<rect x="306.866" y="97.169" width="20.851" height="101.241"/>
	<rect x="306.866" y="211.351" width="20.851" height="26.095"/>
</g>
<g>
</g>
<g>
</g>
<g>
</g>
<g>
</g>
<g>
</g>
<g>
</g>
<g>
</g>
<g>
</g>
<g>
</g>
<g>
</g>
<g>
</g>
<g>
</g>
<g>
</g>
<g>
</g>
<g>
</g>
</svg>
