<?xml version="1.0" encoding="iso-8859-1"?>
<!-- Generator: Adobe Illustrator 19.0.0, SVG Export Plug-In . SVG Version: 6.00 Build 0)  -->
<svg version="1.1" id="Capa_1" xmlns="http://www.w3.org/2000/svg" xmlns:xlink="http://www.w3.org/1999/xlink" x="0px" y="0px"
	 viewBox="0 0 482.412 482.412" style="enable-background:new 0 0 482.412 482.412;" xml:space="preserve">
<g>
	<rect x="107.004" y="414.84" width="82.923" height="20.528"/>
	<path d="M436.473,115.431c-25.372,0-45.939,20.568-45.939,45.939c0,8.701,2.42,16.837,6.623,23.772l-46.055,33.227
		c-5.666-5.218-12.648-9.022-20.391-10.872V0.005H0v482.403h330.709V296.836c20.201-4.829,35.224-22.989,35.224-44.67
		c0-5.962-1.148-11.652-3.215-16.878l48.91-35.285c7.164,4.617,15.687,7.306,24.844,7.306c25.372,0,45.939-20.568,45.939-45.939
		S461.844,115.431,436.473,115.431z M310.182,20.532v186.756c-7.32,1.593-13.99,4.925-19.55,9.551l-40.526-58.037
		c6.736-7.993,10.802-18.31,10.802-29.582c0-25.372-20.568-45.939-45.939-45.939s-45.939,20.568-45.939,45.939
		c0,6.061,1.185,11.842,3.317,17.139l-45.88,51.864c-8.042-6.921-18.499-11.114-29.941-11.114
		c-25.372,0-45.939,20.568-45.939,45.939s20.568,45.939,45.939,45.939s45.939-20.568,45.939-45.939
		c0-6.336-1.283-12.373-3.604-17.865l45.641-51.594c8.109,7.193,18.774,11.569,30.467,11.569c6.676,0,13.012-1.436,18.736-3.996
		l44.005,63.021c-2.352,5.523-3.656,11.6-3.656,17.982c0,22.002,15.472,40.382,36.127,44.878v69.323H20.528V20.532H310.182z
		 M189.558,129.22c0-14.034,11.377-25.411,25.411-25.411c14.034,0,25.412,11.377,25.412,25.411s-11.377,25.411-25.412,25.411
		C200.936,154.632,189.558,143.255,189.558,129.22z M121.938,233.049c0,14.034-11.377,25.411-25.412,25.411
		c-14.034,0-25.411-11.377-25.411-25.411s11.377-25.411,25.411-25.411C110.561,207.638,121.938,219.015,121.938,233.049z
		 M20.528,461.879v-74.985h289.654v74.985H20.528z M319.994,277.578c-14.034,0-25.411-11.377-25.411-25.411
		s11.377-25.411,25.411-25.411c14.034,0,25.412,11.377,25.412,25.411S334.029,277.578,319.994,277.578z M436.473,186.781
		c-14.034,0-25.412-11.377-25.412-25.411s11.377-25.411,25.412-25.411s25.412,11.377,25.412,25.411S450.507,186.781,436.473,186.781
		z"/>
</g>
<g>
</g>
<g>
</g>
<g>
</g>
<g>
</g>
<g>
</g>
<g>
</g>
<g>
</g>
<g>
</g>
<g>
</g>
<g>
</g>
<g>
</g>
<g>
</g>
<g>
</g>
<g>
</g>
<g>
</g>
</svg>
