<?xml version="1.0" encoding="iso-8859-1"?>
<!-- Generator: Adobe Illustrator 19.0.0, SVG Export Plug-In . SVG Version: 6.00 Build 0)  -->
<svg version="1.1" id="Capa_1" xmlns="http://www.w3.org/2000/svg" xmlns:xlink="http://www.w3.org/1999/xlink" x="0px" y="0px"
	 viewBox="0 0 490 490" style="enable-background:new 0 0 490 490;" xml:space="preserve">
<g>
	<path d="M245,173.818c-39.249,0-71.172,31.933-71.172,71.182s31.923,71.171,71.172,71.171s71.182-31.922,71.182-71.171
		S284.249,173.818,245,173.818z M245,294.393c-27.233,0-49.394-22.16-49.394-49.393c0-27.244,22.161-49.404,49.394-49.404
		c27.243,0,49.404,22.16,49.404,49.404C294.404,272.233,272.243,294.393,245,294.393z"/>
	<path d="M490,234.111h-49.703c-5.471-99.206-85.203-178.939-184.409-184.41V0H234.11v49.701
		c-99.196,5.471-178.928,85.204-184.399,184.41H0v21.778h49.712c5.471,99.196,85.203,178.927,184.399,184.399V490h21.778v-49.712
		c99.205-5.471,178.937-85.203,184.409-184.399H490V234.111z M418.477,234.111H376.01c-5.258-63.822-56.298-114.863-120.121-120.122
		V71.522C343.083,76.939,413.061,146.916,418.477,234.111z M245,354.686c-60.484,0-109.687-49.201-109.687-109.686
		c0-60.484,49.203-109.687,109.687-109.687c60.485,0,109.686,49.203,109.686,109.687C354.686,305.485,305.485,354.686,245,354.686z
		 M234.111,71.522v42.468c-63.823,5.258-114.863,56.299-120.122,120.122H71.533C76.949,146.917,146.926,76.939,234.111,71.522z
		 M71.533,255.889h42.457c5.258,63.822,56.298,114.862,120.122,120.121v42.458C146.926,413.05,76.95,343.073,71.533,255.889z
		 M255.889,418.467v-42.458c63.822-5.258,114.862-56.298,120.121-120.121h42.467C413.06,343.074,343.083,413.051,255.889,418.467z"
		/>
	<path d="M246.924,262.315l-19.236-19.236l15.397-15.397l19.236,19.236L246.924,262.315z"/>
</g>
<g>
</g>
<g>
</g>
<g>
</g>
<g>
</g>
<g>
</g>
<g>
</g>
<g>
</g>
<g>
</g>
<g>
</g>
<g>
</g>
<g>
</g>
<g>
</g>
<g>
</g>
<g>
</g>
<g>
</g>
</svg>
