<?xml version="1.0" encoding="iso-8859-1"?>
<!-- Generator: Adobe Illustrator 19.0.0, SVG Export Plug-In . SVG Version: 6.00 Build 0)  -->
<svg version="1.1" id="Capa_1" xmlns="http://www.w3.org/2000/svg" xmlns:xlink="http://www.w3.org/1999/xlink" x="0px" y="0px"
	 viewBox="0 0 487.171 487.171" style="enable-background:new 0 0 487.171 487.171;" xml:space="preserve">
<path d="M476.661,0.027H173.529c-5.607,0-10.233,5.425-10.394,11.033l-0.048,37.732H10.455c-5.607,0-10.233,5.435-10.394,11.042
	L0,241.399c0,76.092,67.129,138.535,151.657,143.288v81.727H81.395v20.729h161.252v-20.729h-70.262v-81.72
	c45.063-2.5,86.2-21.261,114.961-52.517c9.097,1.943,18.257,3.192,27.385,3.731v81.741h-70.262v20.728h161.252V417.65h-70.262
	v-81.727c84.528-4.753,151.656-67.196,151.656-143.288V13.59C487.116,13.59,488.558,0.027,476.661,0.027z M162.021,364.261
	c-77.913,0-141.292-55.121-141.292-122.862V69.52h142.345v123.115c0,58.753,40.951,111.455,101.476,133.094
	C237.931,350.385,201.423,364.261,162.021,364.261z M466.387,192.635c0,67.741-63.379,122.862-141.292,122.862
	c-50.037,0-141.293-34.469-141.293-122.862V20.756h282.585V192.635z"/>
<g>
</g>
<g>
</g>
<g>
</g>
<g>
</g>
<g>
</g>
<g>
</g>
<g>
</g>
<g>
</g>
<g>
</g>
<g>
</g>
<g>
</g>
<g>
</g>
<g>
</g>
<g>
</g>
<g>
</g>
</svg>
