<?xml version="1.0" encoding="iso-8859-1"?>
<!-- Generator: Adobe Illustrator 19.0.0, SVG Export Plug-In . SVG Version: 6.00 Build 0)  -->
<svg version="1.1" id="Capa_1" xmlns="http://www.w3.org/2000/svg" xmlns:xlink="http://www.w3.org/1999/xlink" x="0px" y="0px"
	 viewBox="0 0 490 490" style="enable-background:new 0 0 490 490;" xml:space="preserve">
<g>
	<path d="M315.637,173.569c30.35,0,54.953-24.603,54.953-54.953s-24.603-54.953-54.953-54.953s-54.953,24.603-54.953,54.953
		S285.287,173.569,315.637,173.569z M315.637,84.514c18.834,0,34.102,15.268,34.102,34.102c0,18.834-15.268,34.102-34.102,34.102
		s-34.102-15.268-34.102-34.102C281.535,99.783,296.803,84.514,315.637,84.514z"/>
	<path d="M434.253,118.611C434.253,53.207,381.046,0,315.642,0c-65.405,0-118.611,53.207-118.611,118.611
		c0,2.656,0.198,5.427,0.571,8.282C114.786,146.227,55.747,219.9,55.747,305.996C55.747,407.452,138.296,490,239.762,490
		c101.466,0,184.015-82.548,184.015-184.004c0-36.336-10.5-71.175-30.42-101.285C420.497,170.738,434.253,141.79,434.253,118.611z
		 M336.39,295.57c-0.28-9.661-0.945-19.27-1.993-28.708c11.067-10.113,28.073-26.408,44.89-45.44
		c13.708,22.52,21.643,47.779,23.302,74.147H336.39z M207.85,158.787c5.639,11.601,13.124,23.363,21.486,34.751V295.57h-65.329
		C165.847,237.275,182.969,184.446,207.85,158.787z M250.188,219.414c27.861,31.926,56.698,56.409,58.734,58.125
		c1.686,1.421,3.7,2.22,5.765,2.408c0.401,5.175,0.684,10.389,0.845,15.622h-65.344V219.414z M315.642,20.851
		c53.909,0,97.759,43.851,97.759,97.76c0,19.294-14.203,46.589-41.081,78.914c-20.862,25.096-43.962,46.772-55.884,57.462
		c-0.265,0.245-0.53,0.489-0.794,0.713c-19.883-17.796-97.76-90.374-97.76-137.09C217.882,64.702,261.733,20.851,315.642,20.851z
		 M186.362,151.781c-25.113,31.404-41.477,84.725-43.211,143.789H76.93C81.095,229.359,124.671,172.984,186.362,151.781z
		 M76.932,316.421h66.213c1.706,60.788,18.245,112.867,43.054,143.697C125.589,438.996,81.156,383.08,76.932,316.421z
		 M164.008,316.421h65.329v151.106C194.481,456.711,166.376,392.741,164.008,316.421z M250.188,467.528V316.421h65.338
		C313.158,392.742,285.051,456.714,250.188,467.528z M293.335,460.119c24.809-30.84,41.348-82.91,43.054-143.697h66.204
		C398.368,383.08,353.935,438.996,293.335,460.119z"/>
</g>
<g>
</g>
<g>
</g>
<g>
</g>
<g>
</g>
<g>
</g>
<g>
</g>
<g>
</g>
<g>
</g>
<g>
</g>
<g>
</g>
<g>
</g>
<g>
</g>
<g>
</g>
<g>
</g>
<g>
</g>
</svg>
