<?xml version="1.0" encoding="iso-8859-1"?>
<!-- Generator: Adobe Illustrator 19.0.0, SVG Export Plug-In . SVG Version: 6.00 Build 0)  -->
<svg version="1.1" id="Capa_1" xmlns="http://www.w3.org/2000/svg" xmlns:xlink="http://www.w3.org/1999/xlink" x="0px" y="0px"
	 viewBox="0 0 490 490" style="enable-background:new 0 0 490 490;" xml:space="preserve">
<g>
	<path d="M486.669,387.099c-1.038-27.479-13.581-53.523-34.423-71.462L316.091,198.458c2.415-11.368,3.647-22.669,3.647-33.686
		C319.728,73.916,245.813,0,154.966,0C89.673,0,30.48,38.689,4.152,98.554c-1.426,3.218-1.121,6.944,0.804,9.896
		c1.935,2.942,5.213,4.724,8.736,4.724h144.237V216.37H13.691c-3.523,0-6.8,1.782-8.736,4.725c-1.925,2.953-2.23,6.679-0.804,9.896
		c26.329,59.866,85.522,98.543,150.814,98.543c14.793,0,29.51-2.007,43.848-5.967l113.552,131.949
		C331.222,477.437,358.64,490,387.564,490c0.01,0,0.01,0,0.01,0c26.471,0,51.374-10.313,70.108-29.046
		C477.129,441.497,487.696,414.578,486.669,387.099z M30.684,237.222h137.67c5.762,0,10.426-4.662,10.426-10.425V102.749
		c0-5.762-4.663-10.426-10.426-10.426H30.684c25.585-43.891,72.765-71.472,124.282-71.472c79.352,0,143.921,64.559,143.921,143.921
		c0,55.804-41.687,143.911-143.921,143.911C103.449,308.683,56.28,281.103,30.684,237.222z M442.941,446.211
		c-14.804,14.794-34.464,22.938-55.366,22.938c0,0,0,0-0.01,0c-22.846,0-44.501-9.926-59.396-27.234L219.931,316.147
		c0.068-0.029,0.134-0.062,0.202-0.092c41.378-17.942,74.077-52.703,89.539-95.107c0.047-0.127,0.103-0.245,0.15-0.372
		l128.822,110.862c16.708,14.377,26.36,34.423,27.184,56.445C466.653,409.905,458.528,430.624,442.941,446.211z"/>
	<path d="M403.426,427.931l-35.929-35.929l14.742-14.742l35.929,35.929L403.426,427.931z"/>
</g>
<g>
</g>
<g>
</g>
<g>
</g>
<g>
</g>
<g>
</g>
<g>
</g>
<g>
</g>
<g>
</g>
<g>
</g>
<g>
</g>
<g>
</g>
<g>
</g>
<g>
</g>
<g>
</g>
<g>
</g>
</svg>
