<?xml version="1.0" encoding="utf-8"?>
<!-- Generator: Adobe Illustrator 20.1.0, SVG Export Plug-In . SVG Version: 6.00 Build 0)  -->
<svg version="1.1" id="Calque_1" xmlns="http://www.w3.org/2000/svg" xmlns:xlink="http://www.w3.org/1999/xlink" x="0px" y="0px"
	 viewBox="0 0 32.1 31.9" style="enable-background:new 0 0 32.1 31.9;" xml:space="preserve">
<path d="M0.6,5.6c-0.8,0.8-0.7,2,0,2.7c0,0,2.7,2.6,6.5,6.4c0.1,0.1,0.2,0.1,0.4,0.1s0.3,0,0.4-0.1c0.2-0.2,0.2-0.5,0-0.7
	c-0.6-0.6-1.1-1.1-1.6-1.6l1.6-1.6c0.2-0.2,0.2-0.5,0-0.7c-0.2-0.2-0.5-0.2-0.7,0l-1.6,1.6c-0.9-0.9-1.7-1.6-2.3-2.3l3.6-3.6
	C7,5.6,7,5.3,6.9,5.1c-0.2-0.2-0.5-0.2-0.7,0L2.5,8.7C1.8,8,1.4,7.6,1.4,7.6c-0.2-0.2-0.5-0.8,0-1.3l5-5c0.2-0.2,0.7-0.6,1.3,0
	c0,0,2.5,2.9,6.4,6.8c0.2,0.2,0.5,0.2,0.7,0c0.2-0.2,0.2-0.5,0-0.7c-3.8-3.8-6.3-6.7-6.4-6.7C7.4-0.3,6.3,0,5.6,0.6L0.6,5.6z"/>
<path d="M21.9,24.1c-0.2-0.2-0.5-0.2-0.7,0l-1.6,1.6c-0.5-0.5-1-1-1.5-1.5c-0.2-0.2-0.5-0.2-0.7,0c-0.2,0.2-0.2,0.5,0,0.7
	c3.7,3.7,6.3,6.5,6.3,6.5c0.3,0.3,0.8,0.5,1.3,0.5h0c0.5,0,1.1-0.2,1.4-0.5l5-5.1c0.6-0.6,0.7-1.7,0.1-2.3l-6.7-6.7
	c-0.2-0.2-0.5-0.2-0.7,0c-0.2,0.2-0.2,0.5,0,0.7l6.7,6.7c0.2,0.2,0.2,0.6-0.1,0.9l-5,5.1c-0.1,0.1-0.4,0.2-0.7,0.2h0
	c-0.2,0-0.4,0-0.6-0.2c0,0-0.4-0.5-1.2-1.2l3.6-3.6c0.2-0.2,0.2-0.5,0-0.7c-0.2-0.2-0.5-0.2-0.7,0l-3.6,3.6
	c-0.6-0.6-1.4-1.4-2.3-2.3l1.6-1.6C22,24.6,22,24.3,21.9,24.1z"/>
<path d="M0.1,31.8c0.1,0.1,0.2,0.2,0.4,0.2c0,0,0.1,0,0.1,0l10-3c0.1,0,0.2-0.1,0.2-0.1l17.1-17.2c0,0,0-0.1,0.1-0.1l3.7-3.7
	c0.3-0.3,0.5-0.7,0.5-1.1c0-0.4-0.2-0.8-0.5-1.1l-5.2-5.2c-0.6-0.6-1.6-0.6-2.2,0l-3.7,3.7c0,0,0,0.1-0.1,0.1L3.3,21.4
	c-0.1,0.1-0.1,0.1-0.1,0.2L0,31.3C0,31.5,0,31.7,0.1,31.8z M20.9,5.2l1,1L6.4,21.8l-1.7-0.4L20.9,5.2z M7,22.6L22.6,7L25,9.4L9.3,25
	H7V22.6z M26.9,11.3L10.6,27.6l-0.6-2l15.7-15.5L26.9,11.3z M4,22.3l2,0.5v2.7C6,25.7,6.2,26,6.5,26h2.6l0.6,2.2l-8.5,2.5L4,22.3z
	 M24.9,1.1c0.2-0.2,0.6-0.2,0.8,0l5.2,5.2c0.1,0.1,0.2,0.2,0.2,0.4c0,0.1-0.1,0.3-0.2,0.4l-3.4,3.4l-6-6L24.9,1.1z"/>
</svg>
