<?xml version="1.0" encoding="utf-8"?>
<!-- Generator: Adobe Illustrator 20.1.0, SVG Export Plug-In . SVG Version: 6.00 Build 0)  -->
<svg version="1.1" id="Calque_1" xmlns="http://www.w3.org/2000/svg" xmlns:xlink="http://www.w3.org/1999/xlink" x="0px" y="0px"
	 viewBox="0 0 33.6 32" style="enable-background:new 0 0 33.6 32;" xml:space="preserve">
<path d="M25.3,1c0.3,0,0.5-0.2,0.5-0.5S25.6,0,25.3,0h-17C8,0,7.8,0.2,7.8,0.5S8,1,8.3,1H25.3z"/>
<path d="M25.3,2h-17h-2C3,2,1.5,3.2,0.8,4.1c-0.9,1.2-1,2.8-0.5,4.5c0.9,2.6,3.8,5.8,5.7,7.2C6.1,16,6.2,16,6.3,16
	c0.1,0,0.3-0.1,0.4-0.2c0.2-0.2,0.1-0.5-0.1-0.7c-1.7-1.3-4.5-4.3-5.3-6.8C0.8,6.9,0.9,5.7,1.6,4.7C2.4,3.6,4,3,6.3,3h1.5v9.5
	c0,6.7,6.7,10.6,8,11.3c0,0.1,0,0.1,0,0.2v2.5c0,0.3,0.2,0.5,0.5,0.5c0.3,0,0.5-0.2,0.5-0.5V24c0-0.1,0-0.1,0-0.2
	c1.5-0.7,9-4.6,9-11.3V3h1.5c2.3,0,3.9,0.6,4.7,1.7c0.7,0.9,0.8,2.2,0.3,3.6c-0.6,1.9-3.8,5.6-5.3,6.8c-0.2,0.2-0.3,0.5-0.1,0.7
	c0.1,0.1,0.2,0.2,0.4,0.2c0.1,0,0.2,0,0.3-0.1c1.7-1.3,5-5.1,5.7-7.2c0.6-1.7,0.4-3.3-0.5-4.5c-0.7-1-2.2-2.1-5.5-2.1H25.3z
	 M24.8,12.5c0,6.1-7.2,9.8-8.5,10.4c-1.2-0.7-7.5-4.4-7.5-10.4V3h16V12.5z"/>
<path d="M10.8,28c-1.1,0-2,0.9-2,2v1.5C8.8,31.8,9,32,9.3,32h14c0.3,0,0.5-0.2,0.5-0.5v-1.4c0-1.2-0.9-2.1-2-2.1H10.8z M22.8,30.1
	V31h-13v-1c0-0.6,0.4-1,1-1h11C22.4,29,22.8,29.5,22.8,30.1z"/>
</svg>
