<?xml version="1.0" encoding="utf-8"?>
<!-- Generator: Adobe Illustrator 20.1.0, SVG Export Plug-In . SVG Version: 6.00 Build 0)  -->
<svg version="1.1" id="Calque_1" xmlns="http://www.w3.org/2000/svg" xmlns:xlink="http://www.w3.org/1999/xlink" x="0px" y="0px"
	 viewBox="0 0 39 32" style="enable-background:new 0 0 39 32;" xml:space="preserve">
<path d="M1.5,25H19v1.5c0,0.3,0.2,0.5,0.5,0.5c0.3,0,0.5-0.2,0.5-0.5V25h17.5c0.8,0,1.5-0.7,1.5-1.5v-22C39,0.7,38.3,0,37.5,0h-36
	C0.7,0,0,0.7,0,1.5v22C0,24.3,0.7,25,1.5,25z M1,1.5C1,1.2,1.2,1,1.5,1h36C37.8,1,38,1.2,38,1.5v22c0,0.3-0.2,0.5-0.5,0.5h-36
	C1.2,24,1,23.8,1,23.5V1.5z"/>
<path d="M3.5,22h32c0.3,0,0.5-0.2,0.5-0.5v-18C36,3.2,35.8,3,35.5,3h-32C3.2,3,3,3.2,3,3.5v18C3,21.8,3.2,22,3.5,22z M4,4h31v17H4V4
	z"/>
<path d="M14,28c-1.1,0-2,0.9-2,2v1.5c0,0.3,0.2,0.5,0.5,0.5h14c0.3,0,0.5-0.2,0.5-0.5v-1.4c0-1.2-0.9-2.1-2-2.1H14z M26,30.1V31H13
	v-1c0-0.6,0.4-1,1-1h11C25.6,29,26,29.5,26,30.1z"/>
</svg>
