<?xml version="1.0" encoding="utf-8"?>
<!-- Generator: Adobe Illustrator 20.1.0, SVG Export Plug-In . SVG Version: 6.00 Build 0)  -->
<svg version="1.1" id="Calque_1" xmlns="http://www.w3.org/2000/svg" xmlns:xlink="http://www.w3.org/1999/xlink" x="0px" y="0px"
	 viewBox="0 0 22 32" style="enable-background:new 0 0 22 32;" xml:space="preserve">
<path d="M11,0C5.7,0,0,4.2,0,11c0,3.4,1.3,6.2,3.9,8.3c0,0,0.1,0.1,0.1,0.1c1.9,2.1,2,2.5,2,3.4c0,0.4,0,0.5,0,0.5l0,0.2
	c0,0.5,0,1.2,0.9,1.5l8.1,1.8c0,0,0.1,0,0.1,0c0.2,0,0.4-0.2,0.5-0.4c0.1-0.3-0.1-0.5-0.4-0.6L7.1,24C7,24,7,24,7,23.5l0-0.2
	c0,0,0-0.1,0-0.6c0-1.3-0.3-1.9-2.3-4.1c0,0-0.1-0.1-0.1-0.1C2.2,16.6,1,14,1,11C1,4.8,6.2,1,11,1c4.9,0,10,3.7,10,10
	c0,4-1.9,6.2-3.5,7.6c-0.1,0-0.1,0.1-0.1,0.1c-2,2.2-2.3,2.8-2.3,4.1c0,0,0,0.1,0,0.1l0,0c0,0.1,0,0.1,0,0.1c0,0-0.1,0-0.1,0l-4.2-1
	c-0.3-0.1-0.5,0.1-0.6,0.4c-0.1,0.3,0.1,0.5,0.4,0.6l4.1,1c0.1,0,0.6,0.2,1-0.1c0.2-0.1,0.4-0.4,0.4-0.9l0,0c0,0,0-0.1,0-0.1
	c0,0,0,0,0,0l0,0c0-0.9,0.1-1.3,2-3.4c0,0,0,0,0,0c2.7-2.2,4-5,4-8.4C22,4.1,16.4,0,11,0z"/>
<path d="M15,29.5c0.2,0,0.4-0.2,0.5-0.4c0.1-0.3-0.1-0.5-0.4-0.6l-8-1.8c-0.3-0.1-0.5,0.1-0.6,0.4c-0.1,0.3,0.1,0.5,0.4,0.6l8,1.8
	C14.9,29.5,15,29.5,15,29.5z"/>
<path d="M7.6,29.6c-0.3-0.1-0.5,0.1-0.6,0.4c-0.1,0.3,0.1,0.5,0.4,0.6l6.5,1.5c0,0,0.1,0,0.1,0c0.2,0,0.4-0.2,0.5-0.4
	c0.1-0.3-0.1-0.5-0.4-0.6L7.6,29.6z"/>
</svg>
