<?xml version="1.0" encoding="utf-8"?>
<!-- Generator: Adobe Illustrator 20.1.0, SVG Export Plug-In . SVG Version: 6.00 Build 0)  -->
<svg version="1.1" id="Calque_1" xmlns="http://www.w3.org/2000/svg" xmlns:xlink="http://www.w3.org/1999/xlink" x="0px" y="0px"
	 viewBox="0 0 32 32" style="enable-background:new 0 0 32 32;" xml:space="preserve">
<path d="M16.9,6.5c0-0.3-0.2-0.5-0.5-0.5c-0.3,0-0.5,0.2-0.5,0.5V15H6.4c-0.3,0-0.5,0.2-0.5,0.5S6.2,16,6.4,16h9.5v9.5
	c0,0.3,0.2,0.5,0.5,0.5c0.3,0,0.5-0.2,0.5-0.5V16h9.5c0.3,0,0.5-0.2,0.5-0.5S26.7,15,26.4,15h-9.5V6.5z"/>
<path d="M31.5,15h-2.6C28.4,8.6,23.3,3.5,16.9,3.1V0.5c0-0.3-0.2-0.5-0.5-0.5c-0.3,0-0.5,0.2-0.5,0.5V3C9.1,3,3.5,8.3,3,15H0.5
	C0.2,15,0,15.2,0,15.5S0.2,16,0.5,16h2.4c0,7.2,5.8,13,13,13v2.5c0,0.3,0.2,0.5,0.5,0.5c0.3,0,0.5-0.2,0.5-0.5v-2.6
	c6.7-0.5,12-6.1,12-12.9h2.6c0.3,0,0.5-0.2,0.5-0.5S31.8,15,31.5,15z M15.9,28c-6.6,0-12-5.4-12-12s5.4-12,12-12c6.6,0,12,5.4,12,12
	S22.6,28,15.9,28z"/>
</svg>
