<?xml version="1.0" encoding="utf-8"?>
<!-- Generator: Adobe Illustrator 20.1.0, SVG Export Plug-In . SVG Version: 6.00 Build 0)  -->
<svg version="1.1" id="Calque_1" xmlns="http://www.w3.org/2000/svg" xmlns:xlink="http://www.w3.org/1999/xlink" x="0px" y="0px"
	 viewBox="0 0 32 32" style="enable-background:new 0 0 32 32;" xml:space="preserve">
<path d="M1.5,32h14c0.3,0,0.5-0.2,0.5-0.5S15.8,31,15.5,31h-14C1.2,31,1,30.8,1,30.5v-29C1,1.2,1.2,1,1.5,1h21C22.8,1,23,1.2,23,1.5
	v5C23,6.8,23.2,7,23.5,7S24,6.8,24,6.5v-5C24,0.7,23.3,0,22.5,0h-21C0.7,0,0,0.7,0,1.5v29C0,31.3,0.7,32,1.5,32z"/>
<path d="M18,10.5v20c0,0.8,0.7,1.5,1.5,1.5h11c0.8,0,1.5-0.7,1.5-1.5v-20C32,9.7,31.3,9,30.5,9h-11C18.7,9,18,9.7,18,10.5z M31,10.5
	v20c0,0.3-0.2,0.5-0.5,0.5h-11c-0.3,0-0.5-0.2-0.5-0.5v-20c0-0.3,0.2-0.5,0.5-0.5h11C30.8,10,31,10.2,31,10.5z"/>
<circle cx="12" cy="28" r="1"/>
<circle cx="25" cy="28" r="1"/>
</svg>
