<?xml version="1.0" encoding="utf-8"?>
<!-- Generator: Adobe Illustrator 20.1.0, SVG Export Plug-In . SVG Version: 6.00 Build 0)  -->
<svg version="1.1" id="Calque_1" xmlns="http://www.w3.org/2000/svg" xmlns:xlink="http://www.w3.org/1999/xlink" x="0px" y="0px"
	 viewBox="0 0 29 32" style="enable-background:new 0 0 29 32;" xml:space="preserve">
<path d="M15.1,31.5v-10c0-0.3-0.2-0.5-0.5-0.5c-0.3,0-0.5,0.2-0.5,0.5v10c0,0.3,0.2,0.5,0.5,0.5C14.9,32,15.1,31.8,15.1,31.5z"/>
<path d="M15.1,1.6V0.5c0-0.3-0.2-0.5-0.5-0.5c-0.3,0-0.5,0.2-0.5,0.5v1.1c0,0.3,0.2,0.5,0.5,0.5C14.9,2.1,15.1,1.8,15.1,1.6z"/>
<path d="M3.9,3.5L0.3,6.3C0.1,6.5,0,6.7,0,7s0.1,0.5,0.4,0.8l3.5,2.7C4.2,10.8,4.7,11,5.1,11H19c0.6,0,1-0.5,1-1V4c0-0.6-0.5-1-1-1
	H5.1C4.7,3,4.2,3.2,3.9,3.5z M19,10C19,10,19,10,19,10L5.1,10C5,10,4.7,9.9,4.5,9.7L1,7l3.6-2.8C4.7,4.1,5,4,5.1,4L19,4V10z"/>
<path d="M25.1,12.5c-0.3-0.3-0.9-0.5-1.3-0.5H10c-0.6,0-1,0.5-1,1V19c0,0.6,0.5,1,1,1h13.8c0.4,0,1-0.2,1.2-0.5l3.6-2.8
	c0.2-0.2,0.3-0.5,0.3-0.7s-0.1-0.5-0.4-0.8L25.1,12.5z M10,13h13.8c0.2,0,0.5,0.1,0.6,0.3L28,16l-3.6,2.8C24.3,18.9,24,19,23.9,19
	L10,19L10,13z"/>
</svg>
