<?xml version="1.0" encoding="utf-8"?>
<!-- Generator: Adobe Illustrator 20.1.0, SVG Export Plug-In . SVG Version: 6.00 Build 0)  -->
<svg version="1.1" id="Calque_1" xmlns="http://www.w3.org/2000/svg" xmlns:xlink="http://www.w3.org/1999/xlink" x="0px" y="0px"
	 viewBox="0 0 34.6 32" style="enable-background:new 0 0 34.6 32;" xml:space="preserve">
<path d="M27,2.3C27,2.2,26.9,2.1,26.8,2c-0.1,0-0.3,0-0.4,0L14.4,8.3c-0.2,0.1-0.3,0.4-0.2,0.6l0.2,0.6l-6.9,3.8
	c-0.2,0.1-0.3,0.4-0.2,0.6l0.2,0.5L0.3,18C0,18.2-0.1,18.4,0,18.7l1.5,3.6c0.1,0.2,0.3,0.3,0.5,0.3c0.1,0,0.1,0,0.2,0l7.6-2.7
	l0.2,0.5c0.1,0.2,0.3,0.3,0.5,0.3c0,0,0.1,0,0.1,0l7.3-2.1l0.2,0.6c0.1,0.2,0.3,0.3,0.5,0.3c0,0,0.1,0,0.1,0l13-4
	c0.1,0,0.2-0.1,0.3-0.3c0.1-0.1,0.1-0.3,0-0.4L27,2.3z M2.3,21.5l-1.1-2.7L8,15.5l1.4,3.5L2.3,21.5z M10.8,19.6L10.5,19l0,0
	l-1.8-4.4l0,0L8.5,14l6.3-3.5l2.4,6.1l0.4,1L10.8,19.6z M18.9,18.4l-0.2-0.5c0,0,0,0,0,0l-0.6-1.6L15.3,9l11-5.8l4.6,11.5L18.9,18.4
	z"/>
<path d="M28.5,0.3c-0.1-0.3-0.4-0.4-0.6-0.3c-0.3,0.1-0.4,0.4-0.3,0.6l6,15c0.1,0.2,0.3,0.3,0.5,0.3c0.1,0,0.1,0,0.2,0
	c0.3-0.1,0.4-0.4,0.3-0.6L28.5,0.3z"/>
<path d="M17.6,21h-3c-1.1,0-2,0.9-2,2v1.3l-5.9,6.9c-0.2,0.2-0.2,0.5,0.1,0.7C6.8,32,7,32,7.1,32c0.1,0,0.3-0.1,0.4-0.2l5.9-6.8h2.3
	v6.5c0,0.3,0.2,0.5,0.5,0.5c0.3,0,0.5-0.2,0.5-0.5V25h2.3l5.9,6.8c0.1,0.1,0.2,0.2,0.4,0.2c0.1,0,0.2,0,0.3-0.1
	c0.2-0.2,0.2-0.5,0.1-0.7l-5.9-6.9v-1.2C19.6,21.9,18.7,21,17.6,21z M18.6,24h-5v-1c0-0.6,0.4-1,1-1h3c0.6,0,1,0.5,1,1.1V24z"/>
</svg>
