<?xml version="1.0" encoding="utf-8"?>
<!-- Generator: Adobe Illustrator 20.1.0, SVG Export Plug-In . SVG Version: 6.00 Build 0)  -->
<svg version="1.1" id="Calque_1" xmlns="http://www.w3.org/2000/svg" xmlns:xlink="http://www.w3.org/1999/xlink" x="0px" y="0px"
	 viewBox="0 0 32 32.1" style="enable-background:new 0 0 32 32.1;" xml:space="preserve">
<path d="M28.4,1.4c0.1-0.1,0.2-0.3,0.1-0.4c0-0.2-0.1-0.3-0.3-0.4c-2.3-1.1-5-0.6-6.8,1.2c-1.7,1.7-2.3,4.4-1.5,6.6L8.4,19.9
	c-0.6-0.2-1.3-0.3-2-0.3c-1.7,0-3.4,0.7-4.6,1.9c-1.8,1.8-2.3,4.4-1.3,6.7c0.1,0.2,0.2,0.3,0.4,0.3c0.2,0,0.3,0,0.4-0.1l3.5-3.5
	c0.2-0.2,0.6-0.3,0.8-0.1l1.5,1.6c0.2,0.2,0.2,0.6,0,0.8l-3.5,3.5c-0.1,0.1-0.2,0.3-0.1,0.4c0,0.2,0.1,0.3,0.3,0.4
	c0.8,0.4,1.7,0.6,2.6,0.6c1.6,0,3.1-0.6,4.2-1.8c1.7-1.7,2.3-4.4,1.5-6.6l11.5-11.5c0.6,0.2,1.3,0.3,2,0.3c1.7,0,3.4-0.7,4.6-1.9
	c1.8-1.8,2.3-4.4,1.3-6.7c-0.1-0.2-0.2-0.3-0.4-0.3c-0.2,0-0.3,0-0.4,0.1l-3.5,3.5c-0.2,0.2-0.6,0.2-0.8,0l-1.5-1.5
	c-0.2-0.2-0.2-0.6,0-0.8L28.4,1.4z M24.1,6.4l1.5,1.5c0.6,0.6,1.6,0.6,2.2,0l2.9-2.9c0.5,1.7,0,3.6-1.3,4.9c-1,1-2.4,1.6-3.8,1.6
	c-0.7,0-1.3-0.1-1.9-0.4c-0.2-0.1-0.4,0-0.5,0.1l-12,12C11,23.3,11,23.5,11,23.7c0.8,1.9,0.3,4.4-1.2,5.9c-1.3,1.3-3.2,1.8-5,1.3
	l2.9-3c0.6-0.6,0.6-1.6,0-2.2l-1.5-1.6c-0.6-0.6-1.6-0.5-2.2,0.1l-2.9,2.9c-0.5-1.7,0-3.6,1.3-4.9c1-1,2.4-1.6,3.8-1.6
	c0.7,0,1.3,0.1,1.9,0.4c0.2,0.1,0.4,0,0.5-0.1l12-12C21,8.7,21,8.5,21,8.3c-0.8-1.9-0.3-4.4,1.2-5.9c1.3-1.3,3.2-1.8,5-1.3l-3,3
	C23.5,4.8,23.5,5.8,24.1,6.4z"/>
<path d="M29.2,30.7c-0.2,0.2-0.6,0.2-0.8,0l-10-10c-0.2-0.2-0.5-0.2-0.7,0c-0.2,0.2-0.2,0.5,0,0.7l10,10c0.3,0.3,0.7,0.5,1.1,0.5
	c0,0,0,0,0,0c0.4,0,0.8-0.2,1.1-0.5l1.4-1.5c0.6-0.6,0.6-1.6,0-2.2l-10-10c-0.2-0.2-0.5-0.2-0.7,0c-0.2,0.2-0.2,0.5,0,0.7l10,10
	c0.2,0.2,0.2,0.6,0,0.8L29.2,30.7z"/>
<path d="M5.9,3.2l-3-3C2.7,0,2.3,0,2.1,0.2l-2,2C0,2.4,0,2.7,0.1,2.9l3,3C3.2,6,3.4,6,3.5,6c0.1,0,0.3,0,0.4-0.1l0.6-0.6l7.6,7.6
	c0.1,0.1,0.2,0.1,0.4,0.1c0.1,0,0.3,0,0.4-0.1c0.2-0.2,0.2-0.5,0-0.7L5.2,4.5l0.6-0.6C6,3.7,6,3.4,5.9,3.2z M3.5,4.8L1.2,2.5
	l1.3-1.3l2.3,2.3L3.5,4.8z"/>
</svg>
