<?xml version="1.0" encoding="iso-8859-1"?>
<!-- Generator: Adobe Illustrator 19.0.0, SVG Export Plug-In . SVG Version: 6.00 Build 0)  -->
<svg version="1.1" id="Capa_1" xmlns="http://www.w3.org/2000/svg" xmlns:xlink="http://www.w3.org/1999/xlink" x="0px" y="0px"
	 viewBox="0 0 490 490" style="enable-background:new 0 0 490 490;" xml:space="preserve">
<path d="M98.673,199.397l-25.52,0.229l0.18,20.472l25.52-0.229L98.673,199.397z M122.448,199.204l128.51-1.118l0.178,20.472
	l-128.51,1.118L122.448,199.204z M99.223,261.89l-25.529,0.231l0.179,20.471l25.53-0.23L99.223,261.89z M122.985,261.703
	l128.512-1.118l0.178,20.472l-128.512,1.118L122.985,261.703z M74.244,324.615l0.179,20.472l25.519-0.231l-0.18-20.471
	L74.244,324.615z M123.724,344.656l-0.18-20.472l128.512-1.131l0.18,20.472L123.724,344.656z M490,426.951l-42.454-39.522
	c26.997-36.706,23.892-88.616-9.316-121.824c-8.129-8.129-17.382-14.444-27.255-18.966V59.368c0-6.236-5.055-11.291-11.291-11.291
	H11.291C5.055,48.077,0,53.132,0,59.368V405.27c0,6.236,5.055,11.291,11.291,11.291h320.124
	c33.097,15.833,73.536,11.142,102.272-14.07l42.359,39.433L490,426.951z M388.394,70.659v59.447H22.581V70.659H388.394z
	 M22.581,152.687h365.813v86.92c-29.159-5.183-60.295,3.468-82.825,25.998c-35.24,35.24-36.562,91.532-4.003,128.375H22.581V152.687
	z M319.866,383.97c-28.737-28.738-28.738-75.33,0-104.068c28.738-28.737,75.33-28.737,104.068,0
	c28.737,28.737,28.737,75.33,0,104.068S348.604,412.707,319.866,383.97z"/>
<g>
</g>
<g>
</g>
<g>
</g>
<g>
</g>
<g>
</g>
<g>
</g>
<g>
</g>
<g>
</g>
<g>
</g>
<g>
</g>
<g>
</g>
<g>
</g>
<g>
</g>
<g>
</g>
<g>
</g>
</svg>
