<?xml version="1.0" encoding="iso-8859-1"?>
<!-- Generator: Adobe Illustrator 19.0.0, SVG Export Plug-In . SVG Version: 6.00 Build 0)  -->
<svg version="1.1" id="Capa_1" xmlns="http://www.w3.org/2000/svg" xmlns:xlink="http://www.w3.org/1999/xlink" x="0px" y="0px"
	 viewBox="0 0 490 490" style="enable-background:new 0 0 490 490;" xml:space="preserve">
<g>
	<path d="M244.999,0C109.911,0,0,109.91,0,245.001C0,380.09,109.911,490,244.999,490C380.09,490,490,380.09,490,245.001
		C490,109.91,380.09,0,244.999,0z M468.246,260.155c-3.566,53.052-25.7,101.091-59.949,137.665l-27.098-27.091l-15.01,15.011
		l26.884,26.877c-37.007,32.73-84.886,53.428-137.459,55.896v-36.955h-21.229v36.955c-52.587-2.469-100.478-23.177-137.489-55.924
		l26.749-26.818l-15.03-14.989l-26.94,27.009c-34.233-36.57-56.356-84.598-59.921-137.635h41.23v-21.229H21.315
		c1.456-54.35,22.395-103.92,56.061-141.989l31.395,31.395l15.009-15.011l-31.609-31.61c37.616-35.228,87.36-57.65,142.214-60.224
		v46.047h21.229V21.487c54.631,2.565,104.192,24.814,141.753,59.794l-32.07,32.154l15.03,14.989l31.877-31.961
		c33.911,38.131,55.018,87.887,56.48,142.462h-41.68v21.229h41.242V260.155z"/>
	<path d="M252.521,252.506l-15.01-15.01l88.193-88.193l15.01,15.01L252.521,252.506z"/>
</g>
<g>
</g>
<g>
</g>
<g>
</g>
<g>
</g>
<g>
</g>
<g>
</g>
<g>
</g>
<g>
</g>
<g>
</g>
<g>
</g>
<g>
</g>
<g>
</g>
<g>
</g>
<g>
</g>
<g>
</g>
</svg>
