<?xml version="1.0" encoding="iso-8859-1"?>
<!-- Generator: Adobe Illustrator 19.0.0, SVG Export Plug-In . SVG Version: 6.00 Build 0)  -->
<svg version="1.1" id="Capa_1" xmlns="http://www.w3.org/2000/svg" xmlns:xlink="http://www.w3.org/1999/xlink" x="0px" y="0px"
	 viewBox="0 0 489.997 489.997" style="enable-background:new 0 0 489.997 489.997;" xml:space="preserve">
<path d="M237.655,0.17C158.985,3.795,95.561,65.727,90.119,144.213c-3.166,45.744,13.775,90.277,46.477,122.154
	c22.297,21.737,36.83,48.921,42.038,78.599c0.002,0.01,0.005,0.019,0.006,0.029c0.564,3.233,1.009,6.466,1.345,9.683h-20.578v20.851
	h21.319v28.131h-21.319v20.851h21.319v6.75c0,5.763,4.669,10.426,10.426,10.426h11.556v25.453c0,12.604,10.252,22.857,22.857,22.857
	h38.861c12.604,0,22.857-10.252,22.857-22.857v-25.453h11.55c5.758,0,10.426-4.662,10.426-10.426v-6.75h19.069v-20.851h-19.069
	v-28.131h19.069v-20.851h-18.325c0.338-3.23,0.786-6.473,1.354-9.713l0,0c5.202-29.668,19.741-56.851,42.043-78.608
	c30.213-29.465,46.854-68.917,46.854-111.098C400.254,67.213,326.714-3.943,237.655,0.17z M266.432,467.14
	c0,1.11-0.901,2.006-2.006,2.006h-38.861c-1.105,0-2.006-0.896-2.006-2.006v-25.453h42.873V467.14z M288.408,368.576v52.26h-86.83
	v-52.26c0-4.938-0.249-9.947-0.738-14.987h88.312C288.657,358.629,288.408,363.638,288.408,368.576z M338.84,251.431
	c-23.284,22.714-39.167,50.672-46.269,81.307h-95.153c-7.107-30.645-22.984-58.602-46.263-81.296
	c-28.314-27.602-42.98-66.157-40.236-105.783c4.709-67.928,59.606-121.522,127.693-124.658
	c76.934-3.777,140.791,58.022,140.791,134.259C379.403,191.77,364.996,225.927,338.84,251.431z"/>
<g>
</g>
<g>
</g>
<g>
</g>
<g>
</g>
<g>
</g>
<g>
</g>
<g>
</g>
<g>
</g>
<g>
</g>
<g>
</g>
<g>
</g>
<g>
</g>
<g>
</g>
<g>
</g>
<g>
</g>
</svg>
