<?xml version="1.0" encoding="iso-8859-1"?>
<!-- Generator: Adobe Illustrator 19.0.0, SVG Export Plug-In . SVG Version: 6.00 Build 0)  -->
<svg version="1.1" id="Capa_1" xmlns="http://www.w3.org/2000/svg" xmlns:xlink="http://www.w3.org/1999/xlink" x="0px" y="0px"
	 viewBox="0 0 488.837 488.837" style="enable-background:new 0 0 488.837 488.837;" xml:space="preserve">
<g>
	<path d="M485.775,35.128L453.7,3.041c-2.154-2.164-5.14-3.219-8.192-3.016c-3.042,0.254-5.825,1.818-7.603,4.296l-34.534,48.002
		c-2.981,4.134-2.519,9.821,1.087,13.428l1.953,1.953l-72.014,72.019l-26.081-26.081l-48.035,48.035l-21.465-21.464l-221.68,221.68
		c-22.828,22.833-22.828,59.988,0,82.821l26.973,26.977c11.061,11.062,25.768,17.146,41.41,17.146s30.35-6.084,41.411-17.146
		l221.679-221.689l-21.463-21.461l48.033-48.034l-26.076-26.076l72.012-72.016l1.954,1.955c2.011,2.011,4.677,3.047,7.36,3.047
		c2.112,0,4.245-0.64,6.069-1.96l47.997-34.535c2.479-1.777,4.048-4.56,4.292-7.597C489.036,40.277,487.935,37.281,485.775,35.128z
		 M112.222,456.984c-14.261,14.259-39.146,14.259-53.405,0l-26.973-26.978c-14.717-14.728-14.717-38.678,0-53.406l206.972-206.972
		l80.378,80.374L112.222,456.984z M312.439,213.832l-37.449-37.45l33.326-33.325l37.45,37.449L312.439,213.832z M431.526,63.405
		l-6.109-6.104l22.224-30.898l14.779,14.779L431.526,63.405z"/>
</g>
<g>
</g>
<g>
</g>
<g>
</g>
<g>
</g>
<g>
</g>
<g>
</g>
<g>
</g>
<g>
</g>
<g>
</g>
<g>
</g>
<g>
</g>
<g>
</g>
<g>
</g>
<g>
</g>
<g>
</g>
</svg>
